<svg xmlns="http://www.w3.org/2000/svg" width="169.365" height="27.293" viewBox="0 0 169.365 27.293">
  <g id="logo" transform="translate(-158.24 -400.669)">
    <path id="Path_1" data-name="Path 1" d="M186.083,423.528a13.044,13.044,0,0,0,0-18.439,27.069,27.069,0,0,1,19.206,12.741c.2-.222,2.973-2.9,2.973-2.9h0a31.508,31.508,0,0,0-26.706-14.261,31.967,31.967,0,0,0-23.316,9.916l2.758,3a26.644,26.644,0,0,1,5.758-4.709,10.42,10.42,0,0,0-.383,2.805,7.968,7.968,0,0,0,7.871,8.241,6.384,6.384,0,0,0,6.592-6.357,9.055,9.055,0,0,0-.437-2.967h-4.157c1.345,2.6.478,5.26-2.018,5.26s-3.807-2.5-3.807-4.177a6.391,6.391,0,0,1,6.377-6.384,9.014,9.014,0,0,1,0,18.028,9.417,9.417,0,0,1-2.61-.377l-1.036,3.929a32.667,32.667,0,0,0,8.389,1.083,31.832,31.832,0,0,0,21.143-7.83l-2.328-3.363a27.823,27.823,0,0,1-14.268,6.761Z" fill="#fff"/>
    <path id="Path_2" data-name="Path 2" d="M404.143,409.45a2.96,2.96,0,1,0,2.1.865A2.973,2.973,0,0,0,404.143,409.45Zm0,5.335a2.368,2.368,0,1,1,2.368-2.368A2.368,2.368,0,0,1,404.143,414.784Z" transform="translate(-79.511 -2.874)" fill="#fff"/>
    <path id="Path_3" data-name="Path 3" d="M403.6,414.342V411.86h1.877c.605,0,1.009.343,1.009.848a.854.854,0,0,1-.827.827l.875.807h-.915l-.72-.733h-.592v.733Zm.673-1.292H405.3c.249,0,.4-.1.4-.3s-.141-.289-.424-.289h-1.009Z" transform="translate(-80.307 -3.663)" fill="#fff"/>
    <path id="Path_4" data-name="Path 4" d="M291.612,409.45l-8.072,15.432h4.709l1.406-2.913h8.321l1.44,2.913h4.843l-8.072-15.432Zm-.431,9.256,2.583-5.341,2.63,5.341Z" transform="translate(-41.011 -2.874)" fill="#fff"/>
    <path id="Path_5" data-name="Path 5" d="M266.619,418.989l-9.626-9.539H252.93v15.432h4.063v-9.593l9.694,9.593h4V409.45h-4.063Z" transform="translate(-30.992 -2.874)" fill="#fff"/>
    <path id="Path_6" data-name="Path 6" d="M325.382,409.45l-4.514,6.653-4.521-6.653H311.37l7.211,10.1v5.328h4.265v-5.328l7.232-10.1Z" transform="translate(-50.12 -2.874)" fill="#fff"/>
    <path id="Path_7" data-name="Path 7" d="M374.643,409.45v9.539l9.633-9.539h4.063v15.432h-4.063v-9.593l-9.694,9.593h-4V409.45Z" transform="translate(-69.499 -2.874)" fill="#fff"/>
    <path id="Path_8" data-name="Path 8" d="M344.3,409.45l-8.072,15.432h4.709l1.406-2.913h8.368l1.44,2.913h4.776l-8.072-15.432Zm-.431,9.256,2.583-5.341,2.63,5.341Z" transform="translate(-58.256 -2.874)" fill="#fff"/>
  </g>
</svg>
