<svg xmlns="http://www.w3.org/2000/svg" width="19.477" height="17.478" viewBox="0 0 19.477 17.478">
  <g id="_2216355_location_map_navigation_search_search_location_icon" data-name="2216355_location_map_navigation_search_search location_icon" transform="translate(-18.8 -19.461)">
    <path id="Path_2809" data-name="Path 2809" d="M38.128,28.91A4.415,4.415,0,0,1,39.42,25.8a4.461,4.461,0,0,1,2.517-1.259V22.252L37.3,20V34.84l4.637,2.252V33.25a4.264,4.264,0,0,1-2.517-1.259A4.153,4.153,0,0,1,38.128,28.91Z" transform="translate(-12.372 -0.361)" fill="#fff"/>
    <path id="Path_2810" data-name="Path 2810" d="M60.033,19.54a.6.6,0,0,0-.53-.033l-4.8,2.385v2.286a4.541,4.541,0,0,1,2.584,1.259,4.374,4.374,0,0,1,.364,5.8L60.4,33.982,60.3,20A.529.529,0,0,0,60.033,19.54Z" transform="translate(-24.008)" fill="#fff"/>
    <path id="Path_2811" data-name="Path 2811" d="M23.8,20.1l-4.7,2.617a.616.616,0,0,0-.3.5V36.795a.584.584,0,0,0,.265.5.569.569,0,0,0,.563,0l4.141-2.319V20.1Z" transform="translate(0 -0.428)" fill="#fff"/>
    <path id="Path_2812" data-name="Path 2812" d="M54.7,58.194v3.842l4.9-1.987L56.853,57.3A3.97,3.97,0,0,1,54.7,58.194Z" transform="translate(-24.008 -25.305)" fill="#fff"/>
    <path id="Path_2813" data-name="Path 2813" d="M46.479,37h0a3.28,3.28,0,1,0,2.319.961h0A3.259,3.259,0,0,0,46.479,37Z" transform="translate(-16.318 -11.73)" fill="#fff"/>
    <path id="Path_2814" data-name="Path 2814" d="M70.362,63.3a.59.59,0,0,1-.331.53l-.431.166,1.855,1.855.795-.795L70.395,63.2Z" transform="translate(-33.973 -29.251)" fill="#fff"/>
  </g>
</svg>
