<?xml version="1.0" encoding="utf-8"?>
<!-- Generator: Adobe Illustrator 19.0.0, SVG Export Plug-In . SVG Version: 6.00 Build 0)  -->
<svg version="1.1" id="Layer_1" xmlns="http://www.w3.org/2000/svg" xmlns:xlink="http://www.w3.org/1999/xlink" x="0px" y="0px"
	 viewBox="151.2 375.8 251.8 40.6" style="enable-background:new 151.2 375.8 251.8 40.6;" xml:space="preserve">
<style type="text/css">
	.st0{fill:#1D1D1B;}
</style>
<g id="logo">
	<path class="st0" d="M192.6,409.8c7.6-7.6,7.6-19.8,0-27.4c11.9,1.7,22.3,8.7,28.6,18.9c0.3-0.3,4.4-4.3,4.4-4.3l0,0
		c-8.3-13.1-23.3-21.2-39.7-21.2c-13.1-0.1-25.6,5.3-34.7,14.7l4.1,4.5c2.5-2.7,5.4-5.1,8.6-7c-0.4,1.4-0.6,2.8-0.6,4.2
		c0,7,5.3,12.3,11.7,12.3c5.2,0.2,9.6-3.9,9.8-9.2c0-0.1,0-0.2,0-0.3c0-1.5-0.2-3-0.6-4.4H178c2,3.9,0.7,7.8-3,7.8s-5.7-3.7-5.7-6.2
		c0-5.2,4.2-9.5,9.5-9.5c7.4,0,13.4,6,13.4,13.4c0,7.4-6,13.4-13.4,13.4c-1.3,0-2.6-0.2-3.9-0.6l-1.5,5.8c4.1,1.1,8.3,1.6,12.5,1.6
		c11.5,0.1,22.7-4.1,31.4-11.6l-3.5-5C207.9,405,200.5,408.5,192.6,409.8z"/>
	<path class="st0" d="M398.6,384.6c-2.4,0-4.4,2-4.4,4.4c0,2.4,2,4.4,4.4,4.4c2.4,0,4.4-2,4.4-4.4c0,0,0,0,0,0
		C403,386.5,401.1,384.6,398.6,384.6C398.6,384.6,398.6,384.6,398.6,384.6z M398.6,392.5c-1.9,0-3.5-1.6-3.5-3.5s1.6-3.5,3.5-3.5
		c1.9,0,3.5,1.6,3.5,3.5c0,0,0,0,0,0C402.1,390.9,400.5,392.5,398.6,392.5z"/>
	<path class="st0" d="M396.6,390.7V387h2.8c0.9,0,1.5,0.5,1.5,1.3c0,0.7-0.6,1.2-1.2,1.2l1.3,1.2h-1.4l-1.1-1.1h-0.9v1.1
		L396.6,390.7z M397.6,388.7h1.5c0.4,0,0.6-0.1,0.6-0.4s-0.2-0.4-0.6-0.4h-1.5V388.7z"/>
	<path class="st0" d="M288.5,384.6l-12,22.9h7l2.1-4.3H298l2.1,4.3h7.2l-12-22.9H288.5z M287.9,398.3l3.8-7.9l3.9,7.9H287.9z"/>
	<polygon class="st0" points="266.3,398.7 252,384.6 245.9,384.6 245.9,407.5 252,407.5 252,393.2 266.4,407.5 272.3,407.5 
		272.3,384.6 266.3,384.6 	"/>
	<polygon class="st0" points="325.2,384.6 318.5,394.4 311.8,384.6 304.4,384.6 315.1,399.6 315.1,407.5 321.4,407.5 321.4,399.6 
		332.2,384.6 	"/>
	<polygon class="st0" points="369.6,384.6 369.6,398.7 383.9,384.6 390,384.6 390,407.5 383.9,407.5 383.9,393.2 369.5,407.5 
		363.6,407.5 363.6,384.6 	"/>
	<path class="st0" d="M341.2,384.6l-12,22.9h7l2.1-4.3h12.4l2.1,4.3h7.1l-12-22.9H341.2z M340.6,398.3l3.8-7.9l3.9,7.9H340.6z"/>
</g>
</svg>
