<?xml version="1.0" encoding="utf-8"?>
<!-- Generator: Adobe Illustrator 19.0.0, SVG Export Plug-In . SVG Version: 6.00 Build 0)  -->
<svg version="1.1" id="Layer_1" xmlns="http://www.w3.org/2000/svg" xmlns:xlink="http://www.w3.org/1999/xlink" x="0px" y="0px"
	 viewBox="-296 389.2 18 14.8" style="enable-background:new -296 389.2 18 14.8;" xml:space="preserve">
<style type="text/css">
	.st0{fill:#FFFFFF;}
</style>
<path class="st0" d="M-279,395.6h-13.6l4.3-4.3c0.4-0.4,0.4-1,0-1.4s-1-0.4-1.4,0l-6,6c-0.1,0.1-0.2,0.2-0.2,0.3
	c-0.1,0.2-0.1,0.5,0,0.8c0.1,0.1,0.1,0.2,0.2,0.3l6,6c0.2,0.2,0.5,0.3,0.7,0.3s0.5-0.1,0.7-0.3c0.4-0.4,0.4-1,0-1.4l-4.3-4.3h13.6
	c0.6,0,1-0.4,1-1S-278.4,395.6-279,395.6z"/>
</svg>
