<?xml version="1.0" encoding="utf-8"?>
<!-- Generator: Adobe Illustrator 19.0.0, SVG Export Plug-In . SVG Version: 6.00 Build 0)  -->
<svg version="1.1" id="Layer_1" xmlns="http://www.w3.org/2000/svg" xmlns:xlink="http://www.w3.org/1999/xlink" x="0px" y="0px"
	 viewBox="-293 385 24 24" style="enable-background:new -293 385 24 24;" xml:space="preserve">
<path d="M-275,400c-1.1,0-2.1,0.5-2.8,1.2l-5.3-3.1c0.1-0.3,0.2-0.7,0.2-1.1c0-0.4-0.1-0.7-0.2-1.1l5.3-3.1c0.7,0.7,1.7,1.2,2.8,1.2
	c2.2,0,4-1.8,4-4s-1.8-4-4-4s-4,1.8-4,4c0,0.4,0.1,0.7,0.2,1.1l-5.3,3.1c-0.7-0.7-1.7-1.2-2.8-1.2c-2.2,0-4,1.8-4,4c0,2.2,1.8,4,4,4
	c1.1,0,2.1-0.5,2.8-1.2l5.3,3.1c-0.1,0.3-0.2,0.7-0.2,1.1c0,2.2,1.8,4,4,4s4-1.8,4-4S-272.8,400-275,400z M-275,388c1.1,0,2,0.9,2,2
	s-0.9,2-2,2s-2-0.9-2-2S-276.1,388-275,388z M-287,399c-1.1,0-2-0.9-2-2c0-1.1,0.9-2,2-2s2,0.9,2,2C-285,398.1-285.9,399-287,399z
	 M-275,406c-1.1,0-2-0.9-2-2c0-0.4,0.1-0.7,0.3-1c0,0,0,0,0,0c0,0,0,0,0,0c0.3-0.6,1-1,1.7-1c1.1,0,2,0.9,2,2S-273.9,406-275,406z"
	/>
</svg>
