<?xml version="1.0" encoding="utf-8"?>
<!-- Generator: Adobe Illustrator 19.0.0, SVG Export Plug-In . SVG Version: 6.00 Build 0)  -->
<svg version="1.1" id="Layer_1" xmlns="http://www.w3.org/2000/svg" xmlns:xlink="http://www.w3.org/1999/xlink" x="0px" y="0px"
	 viewBox="-297 389.5 16.9 15.5" style="enable-background:new -297 389.5 16.9 15.5;" xml:space="preserve">
<style type="text/css">
	.st0{fill:#A3A3A3;}
</style>
<g id="Group_1339" transform="translate(-339.188 -2023.693)">
	<path class="st0" d="M51.1,2428.3c-0.2,0-0.5-0.1-0.7-0.3l-8.3-7.3l8.3-6.9c0.4-0.4,1.1-0.3,1.4,0.1c0.4,0.4,0.3,1.1-0.1,1.4
		l-6.5,5.4l6.5,5.8c0.4,0.4,0.5,1,0.1,1.4C51.7,2428.2,51.4,2428.3,51.1,2428.3z"/>
	<path class="st0" d="M57.6,2428.3c-0.2,0-0.5-0.1-0.7-0.3l-8.3-7.3l8.3-6.9c0.4-0.4,1.1-0.3,1.4,0.1c0.4,0.4,0.3,1.1-0.1,1.4
		l-6.5,5.4l6.5,5.8c0.4,0.4,0.5,1,0.1,1.4C58.2,2428.2,57.9,2428.3,57.6,2428.3z"/>
</g>
</svg>
