<?xml version="1.0" encoding="utf-8"?>
<!-- Generator: Adobe Illustrator 19.0.0, SVG Export Plug-In . SVG Version: 6.00 Build 0)  -->
<svg version="1.1" id="Layer_1" xmlns="http://www.w3.org/2000/svg" xmlns:xlink="http://www.w3.org/1999/xlink" x="0px" y="0px"
	 viewBox="-294 386 21.3 22" style="enable-background:new -294 386 21.3 22;" xml:space="preserve">
<style type="text/css">
	.st0{fill:#FFFFFF;}
</style>
<g id="download-button-svgrepo-com" transform="translate(-0.488)">
	<path id="Path_636" class="st0" d="M-275.2,400v5h-15.4v-5h-3v6.5c0,0.8,0.7,1.5,1.5,1.5c0,0,0,0,0,0h18.3c0.8,0,1.5-0.7,1.5-1.5
		c0,0,0,0,0,0V400H-275.2z"/>
	<path id="Path_637" class="st0" d="M-283.1,399.5l-4.2-5.1c0,0-0.6-0.6,0.1-0.6h2.4v-7.4c0,0-0.1-0.4,0.4-0.4h3.4
		c0.4,0,0.4,0.3,0.4,0.3v7.3h2.2c0.8,0,0.2,0.6,0.2,0.6s-3.6,4.8-4.1,5.3C-282.6,399.7-282.9,399.8-283.1,399.5
		C-283.1,399.6-283.1,399.5-283.1,399.5z"/>
</g>
</svg>
