<svg xmlns="http://www.w3.org/2000/svg" width="20.059" height="20.059" viewBox="0 0 20.059 20.059">
  <path id="direction" d="M1032.058,603.808l-8.51-8.511a1.519,1.519,0,0,0-2.148,0l-8.511,8.511a1.519,1.519,0,0,0,0,2.148l8.511,8.511a1.519,1.519,0,0,0,2.148,0l8.51-8.511A1.519,1.519,0,0,0,1032.058,603.808Zm-4.43.754-3.183,3.183a.241.241,0,0,1-.411-.17v-2.066h-3.871v1.94a1.144,1.144,0,1,1-2.288,0v-3.092a1.144,1.144,0,0,1,1.144-1.144h5.015v-1.8a.241.241,0,0,1,.406-.176l3.183,2.978A.241.241,0,0,1,1027.628,604.562Z" transform="translate(-1012.444 -594.853)" fill="#017afb"/>
</svg>
