<?xml version="1.0" encoding="utf-8"?>
<!-- Generator: Adobe Illustrator 19.0.0, SVG Export Plug-In . SVG Version: 6.00 Build 0)  -->
<svg version="1.1" id="Layer_1" xmlns="http://www.w3.org/2000/svg" xmlns:xlink="http://www.w3.org/1999/xlink" x="0px" y="0px"
	 viewBox="-297 389 17 16" style="enable-background:new -297 389 17 16;" xml:space="preserve">
<style type="text/css">
	.st0{fill:#FFFFFF;}
</style>
<g>
	<path class="st0" d="M-292,391h11c0.6,0,1-0.4,1-1s-0.4-1-1-1h-11c-0.6,0-1,0.4-1,1S-292.6,391-292,391z"/>
	<path class="st0" d="M-281,396h-11c-0.6,0-1,0.4-1,1s0.4,1,1,1h11c0.6,0,1-0.4,1-1S-280.4,396-281,396z"/>
	<path class="st0" d="M-281,403h-11c-0.6,0-1,0.4-1,1s0.4,1,1,1h11c0.6,0,1-0.4,1-1S-280.4,403-281,403z"/>
	<circle class="st0" cx="-296" cy="404" r="1"/>
	<circle class="st0" cx="-296" cy="397" r="1"/>
	<circle class="st0" cx="-296" cy="390" r="1"/>
</g>
</svg>
