<?xml version="1.0" encoding="utf-8"?>
<!-- Generator: Adobe Illustrator 19.0.0, SVG Export Plug-In . SVG Version: 6.00 Build 0)  -->
<svg version="1.1" id="Layer_1" xmlns="http://www.w3.org/2000/svg" xmlns:xlink="http://www.w3.org/1999/xlink" x="0px" y="0px"
	 viewBox="206 -116 1024 1024" style="enable-background:new 206 -116 1024 1024;" xml:space="preserve">
<style type="text/css">
	.st0{fill:#FFFFFF;}
</style>
<title></title>
<g id="icomoon-ignore">
</g>
<path class="st0" d="M1218.8,239.5c2.2-89.4-96.1-109.6-96.1-109.6l-131.9-2.2c0,0-11.2-17.9-42.5-69.3S876.7-6.4,854.4-6.4
	s-192.3-2.2-261.6-4.5c-67.1,0-93.9,49.2-93.9,49.2l-60.4,89.4c0,0-22.4,2.2-118.5,2.2C226.1,136.6,214.9,235,214.9,235
	s0,344.3,2.2,453.9C228.4,782.8,324.5,794,324.5,794s699.8-2.2,798.2-4.5c91.7-20.1,96.1-100.6,96.1-100.6
	S1218.8,328.9,1218.8,239.5L1218.8,239.5z M713.5,695.6c-149.8-2.2-270.5-125.2-268.3-275s125.2-270.5,275-268.3
	s270.5,125.2,268.3,275S863.3,697.8,713.5,695.6L713.5,695.6z M1082.4,297.6h-49.2c-20.1,0-33.5-15.7-33.5-35.8s15.7-33.5,35.8-33.5
	h49.2c20.1,0,33.5,15.7,33.5,35.8C1118.2,282,1102.6,297.6,1082.4,297.6z"/>
<circle class="st0" cx="716.7" cy="422.6" r="151.6"/>
</svg>
