<?xml version="1.0" ?><svg id="Layer_1" style="enable-background:new 0 0 64 64;" version="1.1" viewBox="0 0 64 64" xml:space="preserve" xmlns="http://www.w3.org/2000/svg" xmlns:xlink="http://www.w3.org/1999/xlink"><style type="text/css">
	.st0{fill:none;stroke:#000000;stroke-width:2;stroke-linejoin:round;stroke-miterlimit:10;}
</style><path d="M32,4C16.561,4,4,16.561,4,32s12.561,28,28,28s28-12.561,28-28S47.439,4,32,4z M32,58C17.664,58,6,46.336,6,32  S17.664,6,32,6s26,11.664,26,26S46.336,58,32,58z"/><path d="M26.5,25c0-2.206-1.794-4-4-4s-4,1.794-4,4s1.794,4,4,4S26.5,27.206,26.5,25z M20.5,25c0-1.103,0.897-2,2-2s2,0.897,2,2  s-0.897,2-2,2S20.5,26.103,20.5,25z"/><path d="M41.5,21c-2.206,0-4,1.794-4,4s1.794,4,4,4s4-1.794,4-4S43.706,21,41.5,21z M41.5,27c-1.103,0-2-0.897-2-2s0.897-2,2-2  s2,0.897,2,2S42.603,27,41.5,27z"/><path d="M41,37H23c-0.287,0-0.56,0.123-0.75,0.338c-0.19,0.215-0.278,0.501-0.243,0.786C22.019,38.213,23.219,47,32,47  s9.981-8.787,9.992-8.876c0.036-0.285-0.053-0.571-0.243-0.786C41.56,37.123,41.287,37,41,37z M32,45c-5.346,0-7.175-3.988-7.758-6  h15.515C39.174,41.014,37.345,45,32,45z"/></svg>