<?xml version="1.0" encoding="utf-8"?>
<!-- Generator: Adobe Illustrator 19.0.0, SVG Export Plug-In . SVG Version: 6.00 Build 0)  -->
<svg version="1.1" id="Layer_1" xmlns="http://www.w3.org/2000/svg" xmlns:xlink="http://www.w3.org/1999/xlink" x="0px" y="0px"
	 viewBox="-296 388 18 18" style="enable-background:new -296 388 18 18;" xml:space="preserve">
<style type="text/css">
	.st0{fill:#FFFFFF;}
</style>
<g>
	<path class="st0" d="M-289.2,390c-0.4-1.2-1.5-2-2.8-2s-2.4,0.8-2.8,2h-1.2v2h1.2c0.4,1.2,1.5,2,2.8,2s2.4-0.8,2.8-2h11.2v-2
		H-289.2z M-292,392c-0.6,0-1-0.4-1-1s0.4-1,1-1s1,0.4,1,1S-291.4,392-292,392z"/>
	<path class="st0" d="M-292,400c-1.3,0-2.4,0.8-2.8,2h-1.2v2h1.2c0.4,1.2,1.5,2,2.8,2s2.4-0.8,2.8-2h11.2v-2h-11.2
		C-289.6,400.8-290.7,400-292,400z M-292,404c-0.6,0-1-0.4-1-1s0.4-1,1-1s1,0.4,1,1S-291.4,404-292,404z"/>
	<path class="st0" d="M-282,394c-1.3,0-2.4,0.8-2.8,2H-296v2h11.2c0.4,1.2,1.5,2,2.8,2s2.4-0.8,2.8-2h1.2v-2h-1.2
		C-279.6,394.8-280.7,394-282,394z M-282,398c-0.6,0-1-0.4-1-1s0.4-1,1-1s1,0.4,1,1S-281.4,398-282,398z"/>
</g>
</svg>
