<svg xmlns="http://www.w3.org/2000/svg" viewBox="0 0 595.28 841.89"><defs><style>.cls-1{fill:#fff;}.cls-2{fill:#1d1d1b;}</style></defs><g id="tło"><rect class="cls-1" width="595.28" height="841.89"/></g><g id="logo"><path class="cls-2" d="M199.63,434.65a19.39,19.39,0,0,0,0-27.41,40.24,40.24,0,0,1,28.55,18.94c.3-.33,4.42-4.31,4.42-4.31h0c-8.33-13.11-23.32-21.2-39.7-21.2a47.52,47.52,0,0,0-34.66,14.74l4.1,4.46a39.61,39.61,0,0,1,8.56-7,15.49,15.49,0,0,0-.57,4.17c0,7,5.25,12.25,11.7,12.25a9.49,9.49,0,0,0,9.8-9.45,13.46,13.46,0,0,0-.65-4.41H185c2,3.87.71,7.82-3,7.82s-5.66-3.71-5.66-6.21a9.5,9.5,0,0,1,9.48-9.49,13.4,13.4,0,0,1,0,26.8,14,14,0,0,1-3.88-.56l-1.54,5.84a48.56,48.56,0,0,0,12.47,1.61,47.32,47.32,0,0,0,31.43-11.64l-3.46-5A41.36,41.36,0,0,1,199.63,434.65Z"/><path class="cls-2" d="M405.59,409.45a4.42,4.42,0,1,0,4.42,4.41A4.4,4.4,0,0,0,405.59,409.45Zm0,7.93a3.52,3.52,0,1,1,3.52-3.52A3.52,3.52,0,0,1,405.59,417.38Z"/><path class="cls-2" d="M403.6,415.55v-3.69h2.79c.9,0,1.5.51,1.5,1.26a1.27,1.27,0,0,1-1.23,1.23l1.3,1.2H406.6l-1.07-1.09h-.88v1.09Zm1-1.92h1.53c.37,0,.6-.15.6-.44s-.21-.43-.63-.43h-1.5Z"/><path class="cls-2" d="M295.54,409.45l-12,22.94h7l2.09-4.33H305l2.14,4.33h7.2l-12-22.94Zm-.64,13.76,3.84-7.94,3.91,7.94Z"/><polygon class="cls-2" points="273.28 423.63 258.97 409.45 252.93 409.45 252.93 432.39 258.97 432.39 258.97 418.13 273.38 432.39 279.32 432.39 279.32 409.45 273.28 409.45 273.28 423.63"/><polygon class="cls-2" points="332.2 409.45 325.49 419.34 318.77 409.45 311.37 409.45 322.09 424.47 322.09 432.39 328.43 432.39 328.43 424.47 339.18 409.45 332.2 409.45"/><polygon class="cls-2" points="376.62 409.45 376.62 423.63 390.94 409.45 396.98 409.45 396.98 432.39 390.94 432.39 390.94 418.13 376.53 432.39 370.58 432.39 370.58 409.45 376.62 409.45"/><path class="cls-2" d="M348.23,409.45l-12,22.94h7l2.09-4.33h12.44l2.14,4.33H367l-12-22.94Zm-.64,13.76,3.84-7.94,3.91,7.94Z"/></g></svg>