<?xml version="1.0" encoding="utf-8"?>
<!-- Generator: Adobe Illustrator 26.0.2, SVG Export Plug-In . SVG Version: 6.00 Build 0)  -->
<svg version="1.1" id="Layer_1" xmlns="http://www.w3.org/2000/svg" xmlns:xlink="http://www.w3.org/1999/xlink" x="0px" y="0px"
	 viewBox="0 0 399.41 401.04" style="enable-background:new 0 0 399.41 401.04;" xml:space="preserve">
<style type="text/css">
	.st0{fill:#FFFFFF;}
</style>
<path d="M212.49,218.05c5.56,0,10.9-0.02,16.24,0.01c5.39,0.03,7.48,2.1,7.52,7.45c0.03,5.34,0.01,10.69,0.01,16.5
	c7.32,0,14.39,0.14,21.44-0.06c3.53-0.1,6.23,0.96,8.59,3.57c2.67,2.96,5.51,5.79,8.5,8.43c0.88,0.77,2.5,0.92,3.79,0.95
	c3.55,0.08,7.49-1.05,10.56,0.15c3.7,1.44,5.53,0.1,7.71-2.07c0.53-0.53,1.16-0.95,2.44-1.97c-5.67-6.19-10.76-12.46-16.67-17.84
	c-2.29-2.09-6.38-2.73-9.74-3c-5.83-0.47-11.72-0.1-17.58-0.15c-4.39-0.04-7.07-2.39-7.03-6.04c0.04-3.65,2.69-5.89,7.14-5.92
	c5.49-0.04,10.98,0.02,16.47-0.02c10.14-0.08,18.37,3.85,24.82,11.64c4.85,5.86,9.73,11.7,14.62,17.54
	c3.46,4.13,7.86,6.45,13.27,6.74c28.34,1.52,46.9,16.99,53.16,44.75c1.31,5.79,1.92,11.82,2.16,17.77
	c0.36,8.85,0.14,17.72,0.07,26.58c-0.03,4.44-2.29,6.72-6.69,6.75c-9.48,0.07-18.97,0.06-28.45,0c-4.12-0.03-6.72-2.43-6.73-5.95
	c-0.01-3.53,2.59-5.95,6.69-5.99c7.59-0.07,15.18-0.02,23.26-0.02c-0.43-12.53,1.18-24.86-2.05-36.68c-5.73,0-11.36,0.68-16.72-0.22
	c-3.98-0.67-8.09-2.77-11.3-5.3c-7.96-6.26-7.82-16.65-0.21-23.34c1.01-0.89,2.1-1.7,4.12-3.32c-5.12-1.11-9.36-2.66-13.65-2.81
	c-7.67-0.26-14.82-1.64-21.08-6.34c-0.75,0.65-1.27,1.2-1.88,1.6c-3.14,2.1-4.27,4.45-3.42,8.63c1.49,7.27-3.11,14.76-9.93,18.06
	c-7,3.39-15.27,2.01-20.56-3.84c-1.92-2.13-3.51-2.58-6.35-2.09c-5.75,0.99-11.63,1.6-17.46,1.66c-18.34,0.2-36.69,0.07-55.03,0.07
	c-1.31,0-2.62,0-4.53,0c3.12,2.54,6.02,4.28,8.07,6.73c2.01,2.41,3.14,5.55,4.23,7.57c2.81-0.76,5.66-1.86,8.6-2.23
	c3.07-0.39,6.23-0.19,9.35-0.05c3.57,0.16,5.98,2.65,6,5.91c0.02,3.26-2.39,5.83-5.93,5.97c-3.99,0.16-8.02,0.35-11.96-0.09
	c-2.09-0.23-4.04-1.78-6.04-2.72c-4.26,10.6-10,15.22-18.85,14.82c-7.63-0.35-14.32-5.72-16.37-13.16
	c-2.4-8.69,0.78-15.01,11.51-22.3c-1.11-0.19-1.85-0.43-2.59-0.43c-8.61-0.03-17.22,0.04-25.83-0.06c-1.96-0.02-3.03,0.5-4.02,2.36
	c-3.3,6.24-8.68,9.61-15.75,9.6c-7.07-0.02-12.26-3.5-15.82-9.6c-0.57-0.98-1.84-2.17-2.82-2.21c-5.85-0.21-11.71-0.1-17.39-0.1
	c-0.33,0.43-0.54,0.59-0.62,0.81c-6.15,16.81-15.26,23.15-33.25,23.15c-6.49,0-12.98-0.12-19.46,0.11
	c-1.23,0.04-3.03,1.19-3.49,2.28c-1.24,2.95-2.45,6.11-2.67,9.26c-0.41,5.93-0.12,11.92-0.12,18.09c8.09,0,16.02,0,24.27,0
	c2.44-11.16,8.41-19.96,18.69-25.49c7.78-4.19,16.05-5.24,24.66-3.37c17.09,3.71,29.06,19.75,28,37.45
	c-1.04,17.41-15.09,31.85-32.71,33.42c-16.9,1.51-34.34-9.3-38.66-29.81c-8.23,0-16.56,0-24.89,0c-10.79,0-11.55-0.68-11.46-11.36
	c0.06-7.35-0.28-14.78,0.66-22.03c1.75-13.46,9.09-23.56,20.85-30.27c16.13-9.2,33.55-13.84,52.12-14.19c2.49-0.05,5-0.13,7.49,0
	c5.47,0.29,10.9,0.86,13.43-5.86c0.5-1.33,2.19-2.61,3.61-3.11c3.39-1.19,3.87-3.51,3.7-6.64c-0.22-3.98,0.12-7.99-0.1-11.98
	c-0.2-3.73,1.09-6.36,4.18-8.54c5.91-4.17,11.7-8.52,17.32-13.07c1.29-1.05,2.24-3.15,2.4-4.85c0.35-3.82,0.11-7.69,0.11-11.69
	c-7.57-0.78-13.11-4.19-16.45-10.95c-0.34-0.69-1.77-1.14-2.72-1.17c-4.36-0.12-8.74-0.17-13.1,0.01c-1.38,0.06-2.89,0.69-4.07,1.46
	c-9.07,5.95-18.08,11.99-27.1,18.03c-3.86,2.58-3.55,10.53,0.48,12.89c7.12,4.16,10.5,12.37,8.34,20.23
	c-2.16,7.86-9.35,13.29-17.47,13.21c-7.96-0.07-14.97-5.49-17.09-13.22c-2.16-7.87,1.12-16.25,8.4-20.12
	c2.45-1.3,2.92-2.74,2.94-5.18c0.08-14.73-1.84-11.25,10.51-19.61c8.67-5.88,17.34-11.76,26.2-17.35c2.17-1.37,5.02-2.09,7.61-2.27
	c4.96-0.35,9.96-0.1,15.24-0.1c0-3.91,0-7.7,0-11.95c-8.99,0-18.05-0.05-27.11,0.07c-0.96,0.01-1.96,0.97-2.85,1.62
	c-6.21,4.62-12.29,9.41-18.63,13.82c-1.9,1.33-4.46,1.95-6.81,2.33c-2.43,0.39-4.98,0.17-7.47,0.07c-5.42-0.22-9.99-0.4-13.63,5.69
	c-3.97,6.67-12.98,7.91-20.15,4.81c-7.09-3.07-11.46-10.35-10.82-18.03c0.64-7.73,6.32-14.16,14.12-15.97
	c7.29-1.69,15.13,1.47,18.86,8.24c1.52,2.75,3.28,3.11,6.09,3.43c8.99,1.03,16.63-1.26,22.98-7.77
	c8.59-8.81,18.94-11.92,31.16-10.46c6.4,0.76,12.96,0.1,19.45,0.15c4.87,0.04,7.04,2.22,7.07,7.13c0.05,7.11-0.01,14.23,0.02,21.34
	c0.03,5.35,2.13,7.44,7.52,7.44c22.96,0.02,45.92,0.02,68.88,0c5.34-0.01,7.43-2.14,7.43-7.54c0.02-14.85,0-29.7,0.01-44.55
	c0.01-5.83,2-7.79,7.91-7.8c12.98-0.01,25.96-0.07,38.93,0.06c2.45,0.02,3.81-0.62,4.86-2.92c2.6-5.66,5.55-11.16,8.26-16.77
	c1.47-3.04,3.71-4.46,7.12-4.36c4.74,0.13,9.49-0.09,14.22,0.08c2.51,0.09,3.86-0.64,5.15-3c4.32-7.88,13.65-11,21.92-7.74
	c7.98,3.15,12.76,11.71,11.1,19.89c-1.81,8.96-9.59,15.25-18.53,14.7c-6.73-0.42-11.64-3.83-15.07-9.65
	c-0.64-1.08-2.31-2.05-3.58-2.17c-3.34-0.3-6.75-0.34-10.09,0.01c-1.38,0.15-3.17,1.27-3.83,2.47c-3,5.46-5.76,11.05-8.41,16.69
	c-1.58,3.36-3.94,4.77-7.66,4.73c-11.98-0.12-23.96-0.04-35.94-0.04c-1.34,0-2.68,0-4.22,0c0,4.03,0,7.72,0,11.98
	c1.27,0,2.59,0,3.9,0c33.69,0,67.38-0.02,101.07,0.04c2.43,0,3.9-0.4,5.22-2.88c3.87-7.31,12.21-10.6,20.08-8.46
	c7.87,2.14,13.31,9.29,13.26,17.42c-0.05,8.11-5.58,15.15-13.53,17.22c-7.9,2.06-15.94-1.39-20.02-8.72c-0.9-1.62-1.57-2.7-3.8-2.7
	c-34.81,0.09-69.63,0.07-104.44,0.07c-0.48,0-0.97,0.08-1.7,0.15c0,3.85,0,7.63,0,11.82c6.01,0,11.96,0,17.91,0
	c7.36,0,14.73-0.16,22.08,0.1c2.2,0.08,4.68,0.89,6.48,2.15c6.54,4.58,12.81,9.53,19.24,14.25c3.91,2.88,8.41,1.16,12.64,1.18
	c0.57,0,1.18-1.71,1.73-2.65c4.52-7.74,13.74-11,21.99-7.78c8,3.12,12.81,11.66,11.19,19.85c-1.77,8.95-9.54,15.27-18.47,14.77
	c-6.59-0.36-11.65-3.55-14.79-9.34c-1.03-1.9-2.04-2.94-4.23-2.59c-8.63,1.4-15.95-1.24-22-7.42c-8.79-8.97-19.29-12.17-31.75-10.69
	c-6.77,0.8-13.71,0.08-20.57,0.21c-1.14,0.02-2.87,0.55-3.31,1.38c-4.18,7.89-10.79,11.04-19.45,10.54
	c-0.84-0.05-1.68-0.01-2.72-0.01C212.49,210.09,212.49,213.78,212.49,218.05z M116.45,343.71c-0.06-13.2-10.93-23.91-24.17-23.82
	c-13.04,0.1-23.69,10.83-23.72,23.89c-0.02,13.22,10.77,24.03,23.98,24.01C105.74,367.78,116.51,356.93,116.45,343.71z
	 M224.19,253.99c-5.55,0-10.76,0.01-15.98,0c-5.89-0.02-7.88-1.98-7.9-7.82c-0.02-5.32,0-10.63,0-16.36
	c-3.36,0.28-6.19,0.59-9.02,0.72c-2.41,0.11-3.03,1.26-3.01,3.58c0.11,11.48,0.05,22.95,0.06,34.43c0,1.07,0.14,2.15,0.2,3.12
	c12.07,0,23.84,0,35.65,0C224.19,265.77,224.19,260.17,224.19,253.99z M158.39,206.24c0,5.66-0.12,10.89,0.04,16.11
	c0.1,3.33-1.16,5.64-3.82,7.57c-6.05,4.38-11.99,8.9-17.92,13.45c-0.91,0.7-2.09,1.78-2.15,2.74c-0.24,4.02-0.1,8.07-0.1,12.91
	c1.85-1.62,3.03-2.67,4.22-3.7c12.23-10.57,24.47-21.13,36.68-31.72c0.42-0.37,0.93-0.95,0.94-1.44c0.07-5.3,0.04-10.6,0.04-15.91
	C170.14,206.24,164.46,206.24,158.39,206.24z M176.28,237.74c-1.1,0.9-1.67,1.34-2.2,1.82c-9.54,8.58-19.11,17.13-28.58,25.79
	c-0.88,0.81-1.72,2.42-1.54,3.48c0.34,1.95,1.46,3.29,4.09,3.22c8.59-0.22,17.19-0.07,25.79-0.1c0.81,0,1.63-0.22,2.44-0.34
	C176.28,260.39,176.28,249.44,176.28,237.74z M236.52,254c0,6.25,0,12.02,0,18.58c8.96-0.7,17.6-1.26,26.21-2.17
	c1.46-0.15,3.17-1.52,4.05-2.81c1.52-2.23,0.78-4.26-1.4-6.03c-2.21-1.79-4.01-4.07-6.14-5.97c-0.84-0.76-2.07-1.5-3.14-1.52
	C249.65,253.93,243.2,254,236.52,254z M188.75,206.15c0,4.41,0,8.46,0,12.4c4.08-0.27,7.74-0.51,11.26-0.74c0-4.08,0-7.86,0-11.66
	C196.1,206.15,192.5,206.15,188.75,206.15z M212.61,230.11c0,3.88,0,7.74,0,11.65c3.9,0,7.67,0,11.38,0c0-4.03,0-7.81,0-11.65
	C220.11,230.11,216.52,230.11,212.61,230.11z M361.86,288.88c-1.56-2.45-2.81-4.7-4.33-6.76c-3.38-4.58-6.47-4.94-11.14-1.45
	c-2.98,2.23-3.09,4.47,0,6.5C351.01,290.19,356.04,290.7,361.86,288.88z M77.98,286.09c-7.07,0.3-22.74,5.86-27.12,9.62
	C66.74,297.08,74.72,294.25,77.98,286.09z M367.99,164.32c0.1-3.23-2.54-6.04-5.78-6.14c-3.23-0.1-6.03,2.54-6.14,5.78
	c-0.1,3.23,2.54,6.04,5.78,6.14C365.08,170.2,367.89,167.55,367.99,164.32z M331.8,212.03c3.21,0.16,6.08-2.44,6.25-5.67
	c0.16-3.22-2.44-6.08-5.67-6.25c-3.22-0.16-6.08,2.44-6.24,5.67C325.97,209,328.57,211.87,331.8,212.03z M38.53,188.07
	c3.23,0.04,5.98-2.66,6.02-5.9c0.04-3.24-2.66-5.99-5.9-6.02c-3.24-0.04-5.98,2.65-6.02,5.9C32.6,185.29,35.29,188.03,38.53,188.07z
	 M74.57,236.05c-3.24-0.02-5.97,2.68-6,5.92c-0.02,3.24,2.68,5.98,5.92,6c3.23,0.02,5.98-2.68,6-5.92
	C80.52,238.81,77.81,236.08,74.57,236.05z M332.06,116.16c-0.03-3.24-2.78-5.94-6.02-5.9c-3.24,0.03-5.93,2.78-5.9,6.02
	c0.03,3.24,2.78,5.94,6.01,5.9C329.39,122.14,332.09,119.39,332.06,116.16z M290.13,271.86c-0.06-3.24-2.83-5.92-6.06-5.86
	c-3.24,0.06-5.91,2.82-5.85,6.06c0.06,3.24,2.83,5.92,6.06,5.86C287.51,277.87,290.19,275.09,290.13,271.86z M128.5,283.92
	c3.24-0.04,5.93-2.79,5.9-6.02c-0.04-3.24-2.78-5.94-6.02-5.9c-3.25,0.04-5.93,2.78-5.9,6.02
	C122.52,281.26,125.26,283.95,128.5,283.92z M188.31,302.21c0.17-3.22-2.44-6.09-5.67-6.25c-3.22-0.16-6.08,2.43-6.25,5.67
	c-0.17,3.22,2.43,6.09,5.66,6.25C185.26,308.04,188.14,305.44,188.31,302.21z"/>
<path d="M128.35,134.19c0-4.21,0-7.82,0-11.98c-5.13,0-10.19-0.18-15.24,0.06c-3.69,0.18-6.5-0.98-8.88-3.75
	c-1.7-1.98-3.68-3.73-5.53-5.58c-9.8-9.8-9.8-9.86-23.42-8.58c-1.16,0.11-2.46,1.65-3.18,2.84c-4.05,6.7-11.83,10.27-19.17,8.61
	c-7.96-1.8-13.74-8.36-14.28-16.23c-0.54-7.88,4.03-15.12,11.38-18.02c8.41-3.32,17.71-0.05,22.09,8.09
	c1.14,2.12,2.36,2.72,4.6,2.65c4.86-0.16,9.75-0.31,14.59,0.07c2.16,0.17,4.65,1.15,6.24,2.58c4.72,4.25,8.99,9,13.63,13.35
	c1.12,1.05,2.93,1.54,4.51,1.85c1.56,0.31,3.24-0.03,4.85,0.09c5.15,0.37,9.55,0.28,12.53-5.52c2.43-4.72,7.91-6.08,14.09-6.77
	c-1-1.97-1.45-3.78-2.57-4.93c-7.49-7.68-15.24-15.11-22.65-22.87c-2.48-2.6-5.26-1.51-7.97-1.87c-2.97-0.4-4.82,0.47-6.44,3.37
	c-3.96,7.1-12.21,10.09-19.98,7.88c-7.65-2.18-13.01-9.29-13-17.26c0.01-7.97,5.37-15.06,13.04-17.23
	c7.8-2.21,15.97,0.81,19.97,7.92c1.52,2.7,3.16,3.84,6.07,3.34c8.17-1.41,14.19,1.71,19.51,7.98c5.39,6.35,11.68,11.95,17.63,17.82
	c4.42,4.37,9.83,8.21,7.22,15.94c6.43,0,12.12,0,18.35,0c0-4.52,0.1-9.08-0.1-13.63c-0.04-0.82-1.2-1.75-2.05-2.34
	c-3.9-2.69-7.82-5.36-11.82-7.89c-2.8-1.77-4.28-4.08-3.99-7.44c0.06-0.74-0.05-1.5,0.02-2.24c0.47-5.29,0.07-9.47-5.52-12.92
	c-6.65-4.11-8.06-12.88-5.06-20.12c3.02-7.26,10.44-11.76,18.24-11.04c7.75,0.71,14.1,6.41,15.88,14.23
	c1.65,7.26-1.71,14.91-8.3,18.92c-4.64,2.82-4.75,10.49-0.2,13.54c3.52,2.36,6.98,4.82,10.6,7.02c3.09,1.88,4.49,4.35,4.36,8.02
	c-0.19,5.21-0.05,10.43-0.05,15.86c5.98,0,11.67,0,17.97,0c0-5.06,0.17-10.24-0.06-15.41c-0.18-3.94,1.21-6.62,4.61-8.64
	c3.75-2.22,7.29-4.79,10.91-7.22c3.86-2.6,3.61-10.58-0.38-12.91c-7.14-4.15-10.55-12.32-8.42-20.19
	c2.13-7.88,9.27-13.32,17.4-13.28c7.97,0.04,15.01,5.43,17.15,13.13c2.19,7.88-1.06,16.21-8.31,20.16
	c-2.33,1.27-3.01,2.62-3.02,5.14c-0.06,14.75,2.07,11.7-10.52,19.5c-5.82,3.61-8.64,7.53-7.44,14.28c0.3,1.68,0.04,3.46,0.04,5.43
	c7.57,0.82,13.29,4.18,16.56,11.14c0.26,0.56,1.38,1,2.11,1.01c5.61,0.08,11.24,0.2,16.83-0.09c1-0.05,2.41-1.77,2.78-2.98
	c5.06-16.43,9.97-32.9,14.91-49.36c2.02-6.75,2.92-7.42,9.99-7.42c6.11,0,12.23-0.11,18.34,0.05c2.4,0.06,3.64-0.61,4.86-2.85
	c4.3-7.93,13.55-11.14,21.84-7.96c8.01,3.08,12.88,11.59,11.32,19.78c-1.71,8.95-9.45,15.33-18.38,14.88
	c-6.74-0.34-11.88-3.6-15.02-9.57c-0.97-1.84-1.99-2.45-3.99-2.4c-5.85,0.13-11.7,0.04-17.77,0.04
	c-3.52,11.71-6.99,23.27-10.46,34.83c-1.97,6.56-4.02,13.1-5.9,19.68c-1.09,3.82-3.46,5.46-7.39,5.42c-9.11-0.09-18.21,0-27.32-0.04
	c-4.71-0.02-6.52-1.59-7.31-6.17c-0.68-3.9-2.62-5.77-6.54-5.77c-23.58-0.05-47.16-0.05-70.74,0c-4.33,0.01-6.5,2.38-6.54,6.89
	c-0.06,7.24,0.01,14.47-0.03,21.71c-0.03,5.13-2.16,7.28-7.29,7.3c-12.73,0.04-25.45,0.05-38.18-0.03c-2.3-0.01-3.69,0.4-4.93,2.73
	c-3.89,7.37-12.12,10.73-20.01,8.65c-7.92-2.09-13.41-9.16-13.43-17.29c-0.02-8.14,5.44-15.23,13.34-17.36
	c7.89-2.12,16.15,1.22,20.06,8.54c1.21,2.26,2.49,2.86,4.87,2.84C105.92,134.12,116.99,134.19,128.35,134.19z M80.49,140.16
	c-0.01-3.24-2.73-5.95-5.97-5.94c-3.24,0.01-5.95,2.73-5.94,5.97c0.01,3.24,2.73,5.96,5.97,5.95
	C77.78,146.13,80.5,143.4,80.49,140.16z M56.58,92.28c-3.24-0.01-5.96,2.7-5.97,5.95c-0.01,3.24,2.7,5.97,5.94,5.98
	c3.23,0.01,5.97-2.71,5.97-5.95C62.53,95.02,59.82,92.29,56.58,92.28z M98.46,62.27c-0.02-3.24-2.76-5.95-5.99-5.92
	c-3.25,0.02-5.94,2.75-5.92,6c0.02,3.24,2.76,5.95,5.99,5.93C95.77,68.24,98.48,65.5,98.46,62.27z M320.23,50.35
	c-3.23-0.07-6.01,2.59-6.08,5.83c-0.07,3.23,2.59,6.02,5.83,6.09c3.23,0.07,6.01-2.6,6.09-5.84
	C326.14,53.2,323.47,50.42,320.23,50.35z M230.22,44.3c3.23,0.02,5.98-2.68,6-5.92c0.02-3.24-2.68-5.98-5.92-6
	c-3.24-0.02-5.97,2.67-6,5.92C224.28,41.54,226.98,44.28,230.22,44.3z M170.34,38.3c-0.02-3.24-2.76-5.95-5.99-5.92
	c-3.24,0.02-5.94,2.75-5.92,6c0.02,3.24,2.76,5.95,5.99,5.93C167.65,44.28,170.36,41.54,170.34,38.3z"/>
<path d="M254.65,337.86c4.36-20.6,21.88-31.48,38.96-29.78c17.97,1.79,31.91,16.68,32.45,34.39c0.55,17.93-12.05,33.67-29.35,36.66
	c-19.84,3.42-34.95-6.97-42.26-29.28c-1.39,0-2.87,0-4.35,0c-33.42,0-66.83,0-100.25,0c-1.12,0-2.25,0.05-3.37-0.02
	c-3.57-0.25-5.99-2.64-6.03-5.89c-0.04-3.26,2.35-5.75,5.88-6.03c1.12-0.09,2.24-0.03,3.37-0.03c33.42,0,66.83,0,100.25,0
	C251.44,337.86,252.92,337.86,254.65,337.86z M314.11,343.8c-0.02-13.21-10.86-23.96-24.09-23.9c-13.04,0.06-23.74,10.76-23.8,23.81
	c-0.06,13.22,10.7,24.07,23.9,24.09C303.32,367.82,314.13,357.01,314.11,343.8z"/>
<path d="M176.37,164.33c-4.27,0-7.97,0-12,0c0,2.03,0.09,3.88-0.02,5.71c-0.21,3.57-2.64,6-5.88,6.05c-3.26,0.04-5.95-2.36-6-5.89
	c-0.12-8.61-0.37-17.24,0.11-25.82c0.52-9.32,8.94-16.4,18.33-16.16c9.17,0.23,17.01,7.63,17.34,16.85
	c0.29,8.23,0.15,16.47,0.06,24.71c-0.04,3.82-2.59,6.33-5.98,6.32c-3.39-0.02-5.78-2.54-5.94-6.37
	C176.3,168,176.37,166.28,176.37,164.33z M176.35,151.99c-0.24-4.24,1.37-8.81-3.31-10.93c-1.68-0.76-4.6-0.53-6.14,0.49
	c-3.87,2.57-2.36,6.72-2.34,10.44C168.61,151.99,172.29,151.99,176.35,151.99z"/>
<path d="M200.32,152.16c0-5.61-0.03-11.23,0.01-16.84c0.04-4.4,2.35-7.09,5.97-7.09c3.62,0,5.97,2.69,5.98,7.08
	c0.04,11.23,0.04,22.46,0,33.69c-0.02,4.39-2.36,7.09-5.98,7.09c-3.62,0-5.94-2.69-5.98-7.09
	C200.28,163.39,200.32,157.77,200.32,152.16z"/>
<path class="st0" d="M236.52,254c6.68,0,13.13-0.07,19.57,0.07c1.07,0.02,2.29,0.77,3.14,1.52c2.13,1.9,3.93,4.18,6.14,5.97
	c2.18,1.77,2.92,3.81,1.4,6.03c-0.88,1.29-2.59,2.66-4.05,2.81c-8.61,0.91-17.25,1.47-26.21,2.17
	C236.52,266.01,236.52,260.25,236.52,254z"/>
<path d="M98.46,343.91c-0.04,3.24-2.79,5.94-6.02,5.9c-3.25-0.04-5.93-2.78-5.89-6.03c0.04-3.26,2.77-5.93,6.02-5.89
	C95.82,337.93,98.5,340.66,98.46,343.91z"/>
<path d="M296.12,343.87c-0.01,3.24-2.74,5.96-5.98,5.94c-3.25-0.01-5.95-2.73-5.93-5.98c0.01-3.26,2.72-5.95,5.98-5.94
	C293.43,337.9,296.13,340.62,296.12,343.87z"/>
</svg>
