<?xml version="1.0" encoding="utf-8"?>
<!-- Generator: Adobe Illustrator 26.0.2, SVG Export Plug-In . SVG Version: 6.00 Build 0)  -->
<svg version="1.1" id="Layer_1" xmlns="http://www.w3.org/2000/svg" xmlns:xlink="http://www.w3.org/1999/xlink" x="0px" y="0px"
	 viewBox="0 0 399.41 311.14" style="enable-background:new 0 0 399.41 311.14;" xml:space="preserve">
<path d="M390.32,288.97c-2.9,5.67-7.67,7.53-13.83,7.41c-11.35-0.23-22.7-0.09-34.05-0.11c-10.12-0.02-14.47-3.4-16.8-13.31
	c-19.93-84.86-39.83-169.72-59.72-254.59c-1.93-8.22,2.01-13.19,10.31-13.22c4.74-0.02,9.48-0.01,14.22,0
	c8.44,0.01,12.01,2.55,14.62,10.5c16.7,50.73,33.39,101.46,50.08,152.2c11.28,34.3,22.54,68.6,33.83,102.89c0.34,1.04,0.89,2,1.35,3
	C390.32,285.48,390.32,287.23,390.32,288.97z M279,27.93c0.41,1.95,0.67,3.28,0.98,4.6c9.83,41.94,19.68,83.88,29.51,125.82
	c9.52,40.61,19.06,81.21,28.51,121.84c0.59,2.55,1.73,3.43,4.32,3.35c5.23-0.16,10.47,0,15.71,0.01c5.94,0.01,11.88,0,18.23,0
	c-0.45-1.66-0.71-2.84-1.09-3.99c-18.27-55.57-36.56-111.15-54.84-166.72c-8.91-27.08-17.77-54.16-26.76-81.21
	c-0.46-1.4-1.78-3.39-2.89-3.53C287.01,27.65,283.26,27.93,279,27.93z"/>
<path d="M198.48,296.27c-29.19,0-58.37,0.01-87.56-0.01c-1.74,0-3.51-0.01-5.21-0.31c-6.3-1.11-9.89-5.74-8.92-12.04
	c2.28-14.78,4.78-29.52,7.22-44.27c6.34-38.35,12.71-76.7,19.06-115.05c5.51-33.31,11-66.63,16.53-99.94
	c1.03-6.17,5.41-9.5,12.34-9.5c25.45-0.02,50.89-0.01,76.34-0.01c5.99,0,11.98-0.06,17.96,0.02c6.46,0.08,10.56,3.61,11.6,9.91
	c10.76,65.02,21.51,130.05,32.28,195.07c3.36,20.28,6.73,40.56,10.16,60.83c1.72,10.15-2.45,15.28-12.74,15.29
	C257.85,296.29,228.17,296.27,198.48,296.27z M218.49,27.93c0,2.08-0.03,3.56,0,5.05c0.2,9.48,0.5,18.95,0.59,28.43
	c0.07,7.03-4.13,11.2-11.09,11.26c-5.99,0.05-11.97,0.03-17.96,0.01c-7.9-0.03-11.9-4.12-11.75-12.11c0.17-9.6,0.43-19.2,0.65-28.8
	c0.03-1.18,0-2.37,0-3.83c-8.63,0-16.72-0.09-24.8,0.13c-0.88,0.02-2.3,1.69-2.48,2.75c-5.62,33.29-11.1,66.6-16.62,99.9
	c-6.36,38.34-12.73,76.68-19.09,115.02c-2.05,12.39-4.09,24.78-6.16,37.35c21.27,0,42.22,0,64.18,0c0-12.84-0.05-25.29,0.02-37.75
	c0.05-7.98,4.77-12.75,12.82-12.89c7.85-0.13,15.71-0.12,23.57-0.01c8.28,0.12,12.88,4.84,13.05,13.07
	c0.23,11.6,0.47,23.19,0.74,34.79c0.02,0.94,0.22,1.87,0.34,2.84c21.16,0,42.01,0,63.12,0c-4.1-24.82-8.14-49.26-12.18-73.7
	c-6.37-38.47-12.74-76.93-19.11-115.4c-3.5-21.14-6.97-42.28-10.57-63.4c-0.17-1-1.45-2.57-2.24-2.59
	C235.32,27.86,227.12,27.93,218.49,27.93z M186.55,282.98c8.05,0,16.31,0,24.24,0c0-12.65,0-25.04,0-37.62c-8.3,0-15.98,0-24.24,0
	C186.55,257.95,186.55,270.34,186.55,282.98z M205.71,28.24c-4.92,0-9.29,0-14.12,0c0,10.69,0,21.05,0,31.46c4.82,0,9.6,0,14.12,0
	C205.71,49.1,205.71,38.72,205.71,28.24z"/>
<path d="M37.51,296.32c-6.11,0-12.23-0.15-18.33,0.04c-7.26,0.22-14.31-5.38-11.06-15.18C36.34,196.1,64.26,110.93,92.28,25.79
	c2.66-8.08,6.16-10.63,14.51-10.64c4.74-0.01,9.48-0.01,14.22,0c8.4,0.02,12.4,4.92,10.49,13.07c-7.19,30.8-14.43,61.59-21.65,92.38
	c-12.8,54.56-25.59,109.11-38.38,163.67c-1.84,7.85-6.74,11.85-14.87,11.99c-3.24,0.06-6.49,0.01-9.73,0.01c-3.12,0-6.24,0-9.35,0
	C37.51,296.29,37.51,296.31,37.51,296.32z M20.97,283.48c11.6,0,22.56-0.14,33.51,0.08c3.35,0.07,4.38-1.19,5.09-4.26
	c17.28-73.96,34.67-147.89,52.03-221.82c2.27-9.67,4.5-19.34,6.87-29.56c-3.42,0-6.38,0.2-9.31-0.05c-3.09-0.26-4.51,0.76-5.53,3.86
	c-23.58,72.04-47.29,144.04-70.97,216.05C28.82,259.46,25.01,271.15,20.97,283.48z"/>
<path d="M175.6,184.76c0-5.61-0.11-11.22,0.03-16.82c0.18-7.72,4.8-12.14,12.57-12.19c7.1-0.04,14.21-0.06,21.31,0.01
	c7.31,0.07,11.97,4.45,12.22,11.78c0.39,11.21,0.62,22.42,0.79,33.63c0.11,7.03-4.37,11.84-11.47,12.04
	c-8.22,0.23-16.45,0.23-24.67,0c-7.21-0.2-11.56-5.1-11.54-12.38c0.02-5.36,0-10.71,0-16.07
	C175.1,184.76,175.35,184.76,175.6,184.76z M188.2,168.58c0,10.75,0,21.14,0,31.58c7.07,0,14.19,0,20.83,0c0-10.74,0-21.13,0-31.58
	C201.91,168.58,195.44,168.58,188.2,168.58z"/>
<path d="M177.33,111.23c0-4.98-0.22-9.97,0.05-14.93c0.4-7.09,4.49-10.8,11.6-10.86c6.47-0.06,12.95-0.06,19.42,0
	c7.12,0.07,11.26,3.76,11.6,10.86c0.48,9.82,0.72,19.66,0.82,29.49c0.06,6.14-4.04,10.44-10.19,10.62c-7.96,0.23-15.94,0.23-23.9,0
	c-6.28-0.18-10.21-4.63-10.21-10.99c0-2.36,0.21-4.73,0.26-7.09c0.05-2.36,0.01-4.73,0.01-7.09
	C176.98,111.23,177.15,111.23,177.33,111.23z M189.98,98.3c0,8.55,0,16.8,0,25.16c5.86,0,11.75,0,17.33,0c0-8.54,0-16.8,0-25.16
	C201.42,98.3,196.08,98.3,189.98,98.3z"/>
</svg>
