<?xml version="1.0" encoding="utf-8"?>
<!-- Generator: Adobe Illustrator 26.0.2, SVG Export Plug-In . SVG Version: 6.00 Build 0)  -->
<svg version="1.1" id="Layer_1" xmlns="http://www.w3.org/2000/svg" xmlns:xlink="http://www.w3.org/1999/xlink" x="0px" y="0px"
	 viewBox="0 0 535.08 401.04" style="enable-background:new 0 0 535.08 401.04;" xml:space="preserve">
<style type="text/css">
	.st0{fill:#FFFFFF;}
</style>
<g>
	<path d="M187.69,238.93c0,3.88,0,7.57,0,11.73c7.06,0,14,0,20.94,0c7.63,0,9.52,2.25,8.26,9.82c-3.75,22.5-7.49,45-11.26,67.49
		c-0.85,5.07-2.63,6.52-7.78,6.55c-3.24,0.02-6.47,0-10,0c-0.11,1.05-0.28,1.99-0.29,2.93c-0.12,7.62-1.57,9.05-9.32,9.05
		c-10.71,0-21.42,0-32.44,0c-0.07,1.42-0.17,2.62-0.18,3.82c-0.01,10.11,0.01,20.22-0.01,30.32c-0.01,5.67-2.04,7.77-7.57,7.78
		c-14.97,0.02-29.95,0.03-44.92,0c-5.32-0.01-7.38-2.14-7.4-7.57c-0.03-10.11-0.01-20.22-0.01-30.32c0-1.22,0-2.44,0-4.03
		c-9.53,0-18.73,0-27.92,0c-0.62,0-1.25,0-1.87,0c-11.56,0-11.56,0-12.32-11.98c-3.51,0-7.08,0.03-10.65-0.01
		c-4.45-0.05-6.45-1.67-7.17-5.95c-3.94-23.35-7.86-46.71-11.75-70.07c-0.79-4.76,1.72-7.76,6.57-7.81
		c7.58-0.08,15.17-0.02,22.97-0.02c0-3.99,0-7.68,0-11.98c-3.44,0-7,0.03-10.56-0.01c-4.62-0.05-6.49-1.63-7.27-6.27
		c-3.92-23.23-7.82-46.46-11.7-69.7c-0.82-4.94,1.72-7.84,6.88-7.88c7.47-0.06,14.93-0.01,22.63-0.01c0-6.04,0-11.81,0-17.97
		c-3.56,0-7.02,0.03-10.48-0.01c-4.65-0.05-6.55-1.63-7.32-6.21c-3.92-23.23-7.82-46.46-11.7-69.7c-0.83-4.95,1.69-7.89,6.81-7.93
		c7.47-0.06,14.94-0.02,22.92-0.02c0-3.77-0.04-7.34,0.01-10.9c0.07-4.88,2.22-7.01,7.14-7.06c4.74-0.05,9.48-0.08,14.22,0.02
		c1.87,0.04,2.79-0.39,3.39-2.42c2.98-10.04,10.57-15.56,21.15-15.57c17.22-0.03,34.44-0.02,51.66,0
		c11.15,0.01,18.46,5.58,21.67,16.4c0.14,0.47,0.39,0.9,0.68,1.57c5.34,0,10.69-0.02,16.03,0c5.82,0.02,7.75,2.01,7.79,7.93
		c0.02,2.99,0.03,5.99,0.07,8.98c0,0.22,0.17,0.44,0.41,1.05c7.05,0,14.24-0.01,21.44,0c6.53,0.02,8.65,2.67,7.56,9.17
		c-3.82,22.74-7.59,45.49-11.41,68.23c-0.82,4.9-2.62,6.41-7.49,6.46c-3.35,0.03-6.71,0.01-10.32,0.01c0,5.98,0,11.76,0,17.97
		c7.23,0,14.42-0.01,21.62,0c6.57,0.01,8.7,2.65,7.61,9.13c-3.83,22.74-7.59,45.49-11.41,68.23c-0.85,5.04-2.62,6.47-7.82,6.5
		c-2.99,0.02-5.99,0.02-8.98,0.04C188.58,238.71,188.34,238.8,187.69,238.93z M56.04,47.15c0,95.95,0,191.57,0,287.2
		c39.9,0,79.52,0,119.32,0c0-95.8,0-191.42,0-287.2C135.53,47.15,95.9,47.15,56.04,47.15z M133.37,376.29c0-10.07,0-19.84,0-29.49
		c-12.03,0-23.79,0-35.47,0c0,9.98,0,19.65,0,29.49C109.77,376.29,121.44,376.29,133.37,376.29z M43.53,124.74
		c0-20.13,0-39.86,0-59.6c-5.58,0-10.9,0-16.59,0c3.34,20.04,6.65,39.84,9.95,59.6C39.4,124.74,41.37,124.74,43.53,124.74z
		 M194.47,124.75c3.33-20.02,6.6-39.71,9.89-59.5c-5.88,0-11.28,0-16.54,0c0,20.02,0,39.76,0,59.5
		C190.08,124.75,192.06,124.75,194.47,124.75z M43.55,226.6c0-20.1,0-39.83,0-59.63c-5.55,0-10.86,0-16.61,0
		c3.34,20.03,6.64,39.82,9.94,59.63C39.34,226.6,41.32,226.6,43.55,226.6z M194.46,226.58c3.32-19.91,6.6-39.64,9.92-59.55
		c-5.78,0-11.18,0-16.6,0c0,19.97,0,39.7,0,59.55C189.97,226.58,191.93,226.58,194.46,226.58z M43.52,322.42
		c0-20.13,0-39.86,0-59.59c-5.59,0-10.9,0-16.59,0c3.35,20.04,6.65,39.84,9.95,59.59C39.41,322.42,41.38,322.42,43.52,322.42z
		 M187.78,262.82c0,20.05,0,39.78,0,59.54c2.31,0,4.38,0,6.69,0c3.31-19.86,6.59-39.58,9.91-59.54
		C198.67,262.82,193.36,262.82,187.78,262.82z M150.97,34.81c-1.8-3.79-4.48-5.74-8.27-5.75c-18.08-0.06-36.15-0.08-54.23,0.02
		c-3.72,0.02-6.5,1.89-7.9,5.73C104.08,34.81,127.31,34.81,150.97,34.81z"/>
	<path d="M73.74,94.75c0.02-22.99,19-41.87,41.98-41.76c23.25,0.11,41.94,18.98,41.86,42.28c-0.08,22.78-18.98,41.58-41.81,41.56
		C92.48,136.82,73.72,118.04,73.74,94.75z M85.72,94.93c0.01,16.38,13.38,29.85,29.68,29.92c16.72,0.07,30.25-13.44,30.2-30.18
		c-0.04-16.31-13.51-29.7-29.88-29.72C99.16,64.95,85.71,78.39,85.72,94.93z"/>
	<path d="M115.61,232.67c-23.27-0.07-41.95-18.93-41.87-42.24c0.08-22.8,18.96-41.61,41.77-41.6c23.42,0.01,42.22,18.97,42.07,42.44
		C157.43,214.05,138.48,232.74,115.61,232.67z M85.72,190.82c0.03,16.38,13.41,29.83,29.72,29.89
		c16.72,0.05,30.23-13.47,30.16-30.21c-0.06-16.31-13.54-29.68-29.92-29.68C99.13,160.81,85.7,174.27,85.72,190.82z"/>
	<path d="M115.69,328.52c-23.28-0.05-42-18.86-41.94-42.17c0.05-22.82,18.89-41.65,41.69-41.68c23.43-0.02,42.26,18.91,42.14,42.37
		C157.47,309.83,138.54,328.56,115.69,328.52z M115.79,256.65c-16.57-0.04-30.06,13.37-30.07,29.9
		c-0.02,16.4,13.3,29.89,29.61,29.99c16.73,0.1,30.29-13.38,30.27-30.11C145.59,270.13,132.15,256.69,115.79,256.65z"/>
</g>
<path d="M525.4,212.05c-1.29,3.17-2.8,6.4-6.24,7.5c-3.11,0.99-6.47,1.17-10.03,1.76c0.93,1.47,1.87,2.98,2.86,4.48
	c6.85,10.43,10.2,21.84,10.04,34.35c-0.16,12.71-0.05,25.42-0.08,38.13c-0.02,7.03-4.05,11.14-11.04,11.27
	c-2.31,0.04-4.63,0.09-6.93-0.03c-6.17-0.34-10.13-4.45-10.23-10.64c-0.07-4.52-0.01-9.05-0.01-13.79c-19.04,0-37.95,0-57.05,0
	c0.34,4.26-0.47,8.59-4.41,10.7c-3.38,1.81-7.48,2.27-11.44,3.38c0.55,0.91,1.49,2.41,2.38,3.94c1.54,2.66,3.14,5.3,4.54,8.03
	c1.44,2.81,0.84,4.93-1.49,6.17c-2.47,1.32-4.61,0.47-6.2-2.23c-2.97-5.05-5.96-10.1-9.16-15.01c-0.62-0.96-2.25-1.78-3.41-1.78
	c-40.05-0.09-80.11-0.08-120.16-0.04c-0.95,0-2.36,0.24-2.78,0.88c-5.43,8.26-11.66,16.25-13.22,26.34
	c-0.97,6.24-0.93,12.63-1.23,18.96c-0.14,2.96-0.02,5.93-0.02,9.04c1.38,0,2.5,0,4.13,0c0-1.52,0.09-3.12-0.01-4.71
	c-0.87-12.98,8.23-20.89,22.3-17.4c11.1,2.75,19.08,9.27,23.73,19.7c0.87,1.96,1.88,2.64,4.04,2.63c15.21-0.1,30.43-0.11,45.64,0
	c2.51,0.02,3.77-0.59,4.93-3.05c5.93-12.61,16.08-19.35,29.99-20.03c8.65-0.42,15.14,5.72,15.6,14.34c0.15,2.77,0.02,5.55,0.02,8.51
	c1.62,0,2.81,0,4.34,0c0-5.85-0.17-11.61,0.12-17.34c0.07-1.38,1.38-3.37,2.6-3.84c1.28-0.5,3.43,0.07,4.63,0.95
	c0.9,0.66,1.22,2.55,1.25,3.9c0.12,5.77,0.03,11.55,0.02,17.33c-0.02,7.13,0.01,14.25-0.07,21.38c-0.08,7.05-4.14,11.1-11.16,11.19
	c-2.31,0.03-4.63,0.09-6.93-0.03c-6.02-0.32-9.99-4.44-10.06-10.44c-0.06-4.61-0.01-9.21-0.01-14.03c-38.49,0-76.76,0-115.29,0
	c-0.07,0.6-0.22,1.32-0.22,2.05c-0.02,4.04,0.06,8.09-0.03,12.13c-0.13,5.59-3.86,9.72-9.42,10.21c-3.06,0.27-6.17,0.26-9.23,0.02
	c-5.69-0.45-9.53-4.63-9.55-10.37c-0.05-13.96-0.13-27.92,0.04-41.88c0.14-11.24,3.58-21.55,9.72-30.96
	c1.08-1.66,2.12-3.35,3.49-5.5c-2.29,0-3.99,0.04-5.69-0.01c-5.89-0.16-10.43-4.41-10.94-10.21c-0.47-5.32,3.39-10.39,8.84-11.58
	c4.39-0.96,11.73-0.1,16.03,1.99c1.67-5.22,3.33-10.4,4.97-15.58c3.15-10.01,8.67-14.1,19.1-14.1c13.67,0,27.35-0.05,41.02,0.05
	c2.27,0.02,3.11-0.67,3.57-2.91c1.67-8.02,5.57-15.11,9.83-22.01c0.54-0.87,1.04-1.77,1.25-2.12c-3.92-1.09-8.09-1.57-11.55-3.39
	c-3.88-2.05-4.69-6.3-4.28-10.74c-28.69,0-57.22,0-86.04,0c0,4.51,0.02,8.92,0,13.32c-0.04,6.87-4.07,11-10.88,11.11
	c-2.6,0.04-5.21,0.12-7.8-0.07c-5.29-0.38-9.44-4.24-9.47-9.5c-0.07-15.69-0.15-31.39,0.41-47.06c0.38-10.44,5.25-19.57,10.52-28.39
	c0.63-1.06,1.28-2.1,2.25-3.69c-2.24,0-4.01,0.04-5.77-0.01c-6.26-0.19-10.47-4.65-10.44-11.05c0.02-6.4,4.26-10.91,10.54-10.91
	c4.65,0,9.47-0.94,13.89,2.29c1.72-5.39,3.36-10.48,4.96-15.58c3.54-11.25,12.33-16.5,23.87-14.24c2.47,0.49,3.64,2.05,3.49,4.52
	c-0.15,2.46-1.44,3.94-4,4.03c-2.02,0.07-4.04-0.01-6.06,0.07c-3.55,0.13-6.64,1.57-7.82,4.95c-3.09,8.88-5.81,17.88-8.76,27.08
	c39.28,0,78.23,0,117.32,0c0-0.31,0.08-0.67-0.01-0.98c-2.6-8.35-5.15-16.72-7.88-25.02c-1.38-4.2-4.43-6.04-9.43-6.04
	c-15.41-0.02-30.81-0.01-46.22-0.01c-0.96,0-1.93,0.01-2.89-0.07c-2.26-0.17-3.51-1.45-3.7-3.68c-0.2-2.41,0.74-4.16,3.2-4.76
	c0.92-0.22,1.91-0.19,2.87-0.19c15.5-0.01,31-0.02,46.51,0c9.58,0.01,15.52,4.38,18.43,13.52c1.69,5.3,3.34,10.62,5.13,16.33
	c4.48-3.16,9.45-2.27,14.26-2.23c5.95,0.04,10.09,4.49,10.22,10.64c0.13,6.31-3.93,10.97-9.9,11.29c-1.9,0.1-3.81,0.02-6.27,0.02
	c5.48,8.89,10.54,17.49,12.34,27.93c1.24,0,2.46,0,3.68,0c23.11,0,46.22,0,69.33,0c10.01,0,15.71,4.21,18.75,13.81
	c1.68,5.3,3.38,10.59,5.11,16.02c5.23-3.38,10.8-2.59,16.17-1.96c4.65,0.55,7.1,4.17,8.67,8.34
	C525.4,208.97,525.4,210.51,525.4,212.05z M394.8,171.17c-0.14-0.76-0.19-1.14-0.28-1.51c-2.32-9.44-7.68-17.34-12.96-25.27
	c-0.44-0.66-1.77-1.02-2.69-1.02c-40.23-0.05-80.47-0.06-120.7,0.03c-1.06,0-2.5,0.88-3.12,1.79c-2.27,3.34-4.21,6.89-6.36,10.3
	c-8.4,13.33-7.98,28.12-7.28,43.06c1.3,0,2.49,0,4.19,0c0-3.35-0.24-6.53,0.05-9.66c0.69-7.58,6.97-13.37,14.59-13.2
	c14.57,0.33,24.98,7.3,31.14,20.48c0.89,1.91,1.85,2.66,4.03,2.64c15.11-0.11,30.22-0.14,45.33,0.02c2.8,0.03,4.15-0.74,5.35-3.34
	c6.24-13.63,19.71-21.17,34.1-19.44c0.6,0.07,1.42-0.04,1.83-0.4C385.59,172.51,389.83,171.25,394.8,171.17z M513.31,276.05
	c0-2.89,0.13-5.58-0.02-8.25c-0.41-7.09-0.42-14.25-1.55-21.23c-1.43-8.84-7.02-15.9-11.65-23.32c-1.14-1.83-2.34-2.57-4.58-2.56
	c-19.54,0.1-39.09,0.06-58.63,0.06c-20.22,0-40.43-0.02-60.65,0.05c-1.1,0-2.75,0.34-3.2,1.09c-3.84,6.43-7.56,12.93-11.07,19.54
	c-1.11,2.1-1.47,4.6-2.29,7.27c10.16,0,19.68-0.03,29.19,0.01c8.98,0.04,14.88,4.38,17.65,12.91c1.56,4.82,3.09,9.65,4.66,14.56
	c1.15,0,2.11,0,3.07,0c14.83,0,29.65-0.07,44.48,0.06c2.48,0.02,3.62-0.71,4.69-2.98c5.93-12.62,16.01-19.42,29.92-20.11
	c9.01-0.45,15.61,6.05,15.83,15.06c0.06,2.57,0.01,5.15,0.01,7.84C510.65,276.05,511.77,276.05,513.31,276.05z M494.85,211.99
	c-2.68-8.54-5.22-16.7-7.81-24.83c-1.69-5.32-4.36-7.26-10.01-7.26c-27.33-0.02-54.66-0.02-81.99,0c-5.76,0-8.3,1.94-10.08,7.54
	c-2.27,7.14-4.54,14.28-6.79,21.43c-0.31,0.97-0.52,1.97-0.81,3.13C416.62,211.99,455.57,211.99,494.85,211.99z M288.54,289.37
	c39.33,0,78.33,0,117.63,0c-2.52-8.02-4.95-15.8-7.39-23.57c-2.13-6.8-4.34-8.42-11.47-8.42c-26.65,0-53.3,0-79.95,0.01
	c-1.25,0-2.51,0.03-3.74,0.2c-3,0.4-5.4,2-6.35,4.8C294.23,271.27,291.46,280.25,288.54,289.37z M282.67,198.61
	c-3.08-8.45-14.57-15.47-23.14-14.23c-2.71,0.39-4.74,1.95-5.11,4.72c-0.42,3.09-0.35,6.24-0.5,9.51
	C263.71,198.61,273.08,198.61,282.67,198.61z M311.43,353.5c-2.69-8.29-15.23-15.88-23.36-14.17c-2.43,0.51-4.4,1.92-4.76,4.45
	c-0.45,3.18-0.41,6.43-0.59,9.72C292.61,353.5,302,353.5,311.43,353.5z M471.88,275.97c9.64,0,19.1,0,28.59,0
	c0-2.89,0.14-5.58-0.03-8.25c-0.22-3.42-2.61-5.69-5.91-5.95C485.72,261.1,475.32,267.57,471.88,275.97z M411.78,353.49
	c0-2.76,0.08-5.15-0.02-7.54c-0.19-4.64-2.8-7.04-7.47-6.68c-8.6,0.65-15.33,4.57-20.02,11.87c-0.44,0.68-0.73,1.45-1.17,2.36
	C392.85,353.49,402.23,353.49,411.78,353.49z M376.77,184.49c-9.38-0.42-20.07,6.48-22.21,14.13c5.87,0,11.7,0,17.62,0
	c0.24-0.63,0.52-1.24,0.72-1.87C374.17,192.73,375.44,188.71,376.77,184.49z M502.38,284.99c0,2.83-0.05,5.41,0.01,7.98
	c0.19,9.16-1.84,7.76,8.51,7.86c0.29,0,0.66,0.06,0.84-0.09c0.54-0.45,1.41-0.98,1.43-1.5c0.11-4.75,0.06-9.51,0.06-14.38
	c-3.18,0-5.96-0.01-8.73,0C503.93,284.86,503.36,284.92,502.38,284.99z M270.05,362.39c0,2.93-0.04,5.6,0.01,8.27
	c0.15,8.81-1.5,7.54,7.86,7.65c0.38,0,0.88,0.13,1.13-0.05c0.68-0.52,1.77-1.16,1.79-1.78c0.15-4.66,0.08-9.33,0.08-14.08
	C277.18,362.39,273.84,362.39,270.05,362.39z M413.82,362.44c0,2.79-0.05,5.44,0.01,8.1c0.21,9.1-1.86,7.63,8.21,7.77
	c0.38,0.01,0.85,0.08,1.12-0.11c0.51-0.34,1.29-0.84,1.3-1.29c0.09-4.82,0.06-9.65,0.06-14.46
	C420.78,362.44,417.46,362.44,413.82,362.44z M241.2,207.56c0,2.87-0.05,5.44,0.01,8.02c0.19,8.99-1.76,7.67,8.28,7.78
	c0.29,0,0.68,0.09,0.84-0.06c0.62-0.58,1.65-1.22,1.67-1.87c0.14-4.57,0.08-9.15,0.08-13.86
	C248.4,207.56,244.99,207.56,241.2,207.56z M505.41,212.08c2.93,0,5.91,0.18,8.84-0.11c0.87-0.08,1.62-1.46,2.43-2.24
	c-0.82-0.77-1.55-1.99-2.49-2.2c-1.65-0.37-3.44-0.13-5.18-0.11C505.49,207.44,505,208.03,505.41,212.08z M366.89,212.05
	c0.04-2.1,0.41-4.2-2.11-4.53c-2.36-0.31-4.81-0.26-7.18,0.03c-0.79,0.1-1.98,1.41-1.99,2.18c-0.01,0.76,1.19,2.14,1.95,2.21
	C360.59,212.2,363.65,212.05,366.89,212.05z M416.74,289.53c2.9,0,5.87,0.17,8.79-0.11c0.87-0.08,1.63-1.43,2.43-2.2
	c-0.8-0.78-1.51-2.05-2.43-2.25c-1.75-0.37-3.62-0.15-5.44-0.12C417.05,284.91,416.28,285.92,416.74,289.53z M278.04,289.53
	c0.25-4.19-0.16-4.65-3.79-4.67c-1.63-0.01-3.34-0.29-4.87,0.11c-1.02,0.27-1.78,1.53-2.66,2.35c0.85,0.74,1.64,2.03,2.55,2.12
	C272.11,289.7,274.99,289.53,278.04,289.53z M249.18,134.63c0.32-4.16-0.08-4.64-3.69-4.66c-1.63-0.01-3.33-0.28-4.87,0.1
	c-1.03,0.26-1.81,1.47-2.7,2.25c0.91,0.77,1.76,2.09,2.75,2.2C243.41,134.83,246.2,134.63,249.18,134.63z M388.06,134.61
	c2.9,0,5.86,0.17,8.78-0.11c0.81-0.08,1.91-1.46,2.05-2.37c0.09-0.59-1.21-1.88-2.05-2.05c-1.65-0.34-3.42-0.12-5.13-0.12
	C387.98,129.98,387.47,130.6,388.06,134.61z"/>
<path class="st0" d="M505.41,212.08c-0.4-4.04,0.08-4.64,3.61-4.66c1.73-0.01,3.52-0.25,5.18,0.11c0.95,0.21,1.67,1.44,2.49,2.2
	c-0.81,0.78-1.56,2.15-2.43,2.24C511.31,212.25,508.34,212.08,505.41,212.08z"/>
<path class="st0" d="M249.18,134.63c-2.98,0-5.77,0.2-8.51-0.11c-0.99-0.11-1.84-1.43-2.75-2.2c0.89-0.78,1.68-1.99,2.7-2.25
	c1.53-0.39,3.24-0.11,4.87-0.1C249.1,129.99,249.51,130.47,249.18,134.63z"/>
<path class="st0" d="M388.06,134.61c-0.59-4.01-0.08-4.63,3.66-4.64c1.72-0.01,3.48-0.22,5.13,0.12c0.84,0.17,2.14,1.46,2.05,2.05
	c-0.15,0.91-1.25,2.29-2.05,2.37C393.92,134.78,390.96,134.61,388.06,134.61z"/>
</svg>
