<svg xmlns="http://www.w3.org/2000/svg" width="23.96" height="23.954" viewBox="0 0 23.96 23.954"><g transform="translate(-0.05 -0.044)"><path d="M11.98,23.954c-2.127,0-4.021-.032-4.942-.084A7.1,7.1,0,0,1,2.02,21.936,7.041,7.041,0,0,1,.085,16.916c-.112-1.986-.112-7.9,0-9.884A7.064,7.064,0,0,1,2.02,2.014,7.069,7.069,0,0,1,7.038.085C7.953.032,9.847,0,11.98,0s4.027.032,4.942.085A7.081,7.081,0,0,1,21.941,2.02a7.04,7.04,0,0,1,1.935,5.018c.112,1.985.112,7.893,0,9.878a7.089,7.089,0,0,1-1.935,5.019,7.041,7.041,0,0,1-5.019,1.935C16,23.922,14.107,23.954,11.98,23.954Zm0-2.158c.248,0,.542,0,.853.006.385,0,.819.008,1.271.008a16.843,16.843,0,0,0,4.937-.5,4.048,4.048,0,0,0,2.277-2.277c.536-1.347.507-4.271.487-6.206,0-.314-.006-.608-.006-.856s0-.542.006-.853c.02-1.935.049-4.855-.487-6.207a4.053,4.053,0,0,0-2.277-2.278,17.218,17.218,0,0,0-4.993-.494c-.439,0-.861,0-1.233.008-.3,0-.592.006-.835.006s-.541,0-.851-.006c-.383,0-.816-.008-1.265-.008a16.9,16.9,0,0,0-4.945.495A4.052,4.052,0,0,0,2.644,4.917C2.111,6.268,2.139,9.2,2.158,11.14c0,.305.006.593.006.838s0,.541-.006.851c-.02,1.935-.049,4.858.487,6.21a4.052,4.052,0,0,0,2.277,2.277,17.164,17.164,0,0,0,4.985.494c.441,0,.865,0,1.239-.008C11.45,21.8,11.738,21.8,11.983,21.8Zm0-3.677a6.133,6.133,0,1,1,4.345-1.8A6.1,6.1,0,0,1,11.983,18.119Zm0-10.134a3.993,3.993,0,1,0,3.993,3.992A4,4,0,0,0,11.983,7.985Zm6.393-.967a1.433,1.433,0,1,1,1.433-1.433A1.434,1.434,0,0,1,18.375,7.017Z" transform="translate(0.049 0.044)" fill="#fff"/></g></svg>