<svg xmlns="http://www.w3.org/2000/svg" width="18.461" height="14.994" viewBox="0 0 18.461 14.994"><path d="M16.564,3.737c.012.164.012.328.012.492A10.692,10.692,0,0,1,5.81,14.994,10.692,10.692,0,0,1,0,13.3a7.827,7.827,0,0,0,.914.047,7.578,7.578,0,0,0,4.7-1.617A3.79,3.79,0,0,1,2.073,9.1a4.772,4.772,0,0,0,.715.059,4,4,0,0,0,1-.129A3.784,3.784,0,0,1,.75,5.318V5.271a3.811,3.811,0,0,0,1.71.48A3.789,3.789,0,0,1,1.289.691a10.755,10.755,0,0,0,7.8,3.959A4.271,4.271,0,0,1,9,3.784a3.787,3.787,0,0,1,6.548-2.589,7.449,7.449,0,0,0,2.4-.914,3.773,3.773,0,0,1-1.663,2.085,7.585,7.585,0,0,0,2.179-.586A8.133,8.133,0,0,1,16.564,3.737Z" fill="#2a40f0"/></svg>