<svg xmlns="http://www.w3.org/2000/svg" width="28.487" height="28.487" viewBox="0 0 28.487 28.487">
  <g id="Group_9904" data-name="Group 9904" transform="translate(-44.181 -14.458)">
    <g id="google" transform="translate(44.181 14.458)">
      <path id="Path_7" data-name="Path 7" d="M6.313,147.79l-.992,3.7-3.624.077a14.268,14.268,0,0,1-.1-13.3h0l3.227.592,1.413,3.207a8.5,8.5,0,0,0,.08,5.723Z" transform="translate(0 -130.575)" fill="#fff"/>
      <path id="Path_8" data-name="Path 8" d="M275.309,208.176a14.238,14.238,0,0,1-5.077,13.768h0l-4.064-.207-.575-3.591a8.489,8.489,0,0,0,3.652-4.335h-7.616v-5.635h13.681Z" transform="translate(-247.071 -196.593)" fill="#fff"/>
      <path id="Path_9" data-name="Path 9" d="M51.971,317.544h0a14.248,14.248,0,0,1-21.463-4.358l4.616-3.778a8.471,8.471,0,0,0,12.207,4.337Z" transform="translate(-28.812 -292.194)" fill="#fff"/>
      <path id="Path_10" data-name="Path 10" d="M50.366,3.279,45.752,7.057a8.47,8.47,0,0,0-12.487,4.435l-4.64-3.8h0A14.246,14.246,0,0,1,50.366,3.279Z" transform="translate(-27.031)" fill="#fff"/>
    </g>
  </g>
</svg>
