<svg xmlns="http://www.w3.org/2000/svg" width="19.966" height="19.962" viewBox="0 0 19.966 19.962"><g transform="translate(-0.041 -0.037)"><path d="M9.983,19.962c-1.776,0-3.353-.027-4.117-.07A5.919,5.919,0,0,1,1.683,18.28,5.867,5.867,0,0,1,.07,14.1c-.094-1.655-.094-6.581,0-8.236A5.89,5.89,0,0,1,1.683,1.678,5.888,5.888,0,0,1,5.865.07C6.629.027,8.207,0,9.983,0S13.337.027,14.1.07a5.907,5.907,0,0,1,4.183,1.613A5.866,5.866,0,0,1,19.9,5.865c.094,1.654.094,6.577,0,8.231a5.907,5.907,0,0,1-1.612,4.183A5.87,5.87,0,0,1,14.1,19.892C13.337,19.935,11.759,19.962,9.983,19.962Zm0-1.8c.207,0,.452,0,.712.005.319,0,.68.007,1.055.007a14.032,14.032,0,0,0,4.118-.413,3.371,3.371,0,0,0,1.9-1.9,17.972,17.972,0,0,0,.406-5.175c0-.26-.005-.5-.005-.709s0-.449.005-.707A18,18,0,0,0,17.767,4.1a3.371,3.371,0,0,0-1.9-1.9A14.353,14.353,0,0,0,11.7,1.787c-.363,0-.714,0-1.022.006-.259,0-.494,0-.7,0s-.449,0-.707-.005c-.318,0-.678-.007-1.051-.007A14.088,14.088,0,0,0,4.1,2.2,3.371,3.371,0,0,0,2.2,4.1,18.2,18.2,0,0,0,1.8,9.287c0,.257,0,.492,0,.694s0,.449-.005.707A18,18,0,0,0,2.2,15.865a3.371,3.371,0,0,0,1.9,1.9,14.3,14.3,0,0,0,4.158.413c.365,0,.717,0,1.027-.006C9.544,18.166,9.783,18.164,9.986,18.164Zm0-3.064a5.11,5.11,0,1,1,3.622-1.5A5.087,5.087,0,0,1,9.986,15.1Zm0-8.446a3.327,3.327,0,1,0,3.327,3.327A3.331,3.331,0,0,0,9.986,6.654Zm5.327-.806a1.194,1.194,0,1,1,1.194-1.193A1.195,1.195,0,0,1,15.313,5.847Z" transform="translate(0.041 0.037)" fill="#2a40f0"/></g></svg>