<svg xmlns="http://www.w3.org/2000/svg" width="22.154" height="17.993" viewBox="0 0 22.154 17.993"><path d="M19.877,4.484c.014.2.014.394.014.59A12.83,12.83,0,0,1,6.972,17.993,12.831,12.831,0,0,1,0,15.955a9.393,9.393,0,0,0,1.1.056,9.093,9.093,0,0,0,5.637-1.94,4.548,4.548,0,0,1-4.245-3.149,5.726,5.726,0,0,0,.858.07,4.8,4.8,0,0,0,1.195-.155A4.541,4.541,0,0,1,.9,6.382V6.326A4.573,4.573,0,0,0,2.952,6.9,4.547,4.547,0,0,1,1.546.829a12.906,12.906,0,0,0,9.362,4.751A5.126,5.126,0,0,1,10.8,4.54a4.545,4.545,0,0,1,7.858-3.107,8.939,8.939,0,0,0,2.882-1.1,4.528,4.528,0,0,1-2,2.5,9.1,9.1,0,0,0,2.615-.7A9.76,9.76,0,0,1,19.877,4.484Z" fill="#fff"/></svg>