<svg xmlns="http://www.w3.org/2000/svg" width="22.223" height="20.604" viewBox="0 0 22.223 20.604">
  <g id="clip" transform="translate(0)">
    <g id="Clips_2_" transform="translate(0 0)">
      <g id="Group_2312" data-name="Group 2312">
        <path id="Path_1509" data-name="Path 1509" d="M20.542,35.022a5.658,5.658,0,0,1-8.118,0L1.261,23.626a4.461,4.461,0,0,1,0-6.217,4.227,4.227,0,0,1,5.112-.725.7.7,0,0,1,.469.207L18,28.287a2.973,2.973,0,0,1,0,4.144,2.828,2.828,0,0,1-4.058,0L4.813,23.106a.744.744,0,0,1,0-1.036.708.708,0,0,1,1.015,0l9.133,9.324a1.413,1.413,0,0,0,2.029,0,1.485,1.485,0,0,0,0-2.072L6.334,18.444a2.828,2.828,0,0,0-4.058,0,2.973,2.973,0,0,0,0,4.144l11.162,11.4a4.243,4.243,0,0,0,6.089,0,4.461,4.461,0,0,0,0-6.217L9.38,17.409a.744.744,0,0,1,0-1.036.708.708,0,0,1,1.015,0l10.148,10.36A5.949,5.949,0,0,1,20.542,35.022Z" transform="translate(0 -16.135)" fill="#8f8f8f"/>
      </g>
    </g>
  </g>
</svg>
