<?xml version="1.0" ?><svg viewBox="0 0 32 32" xmlns="http://www.w3.org/2000/svg"><title/><g data-name="Layer 2" id="Layer_2"><path d="M16,30A14,14,0,1,1,30,16,14.015,14.015,0,0,1,16,30ZM16,4A12,12,0,1,0,28,16,12.013,12.013,0,0,0,16,4Z"/><path d="M13,12a1,1,0,0,1-1-1,1,1,0,0,0-2,0,1,1,0,0,1-2,0,3,3,0,0,1,6,0A1,1,0,0,1,13,12Z"/><path d="M23,12a1,1,0,0,1-1-1,1,1,0,0,0-2,0,1,1,0,0,1-2,0,3,3,0,0,1,6,0A1,1,0,0,1,23,12Z"/><path d="M17,26H15a7.008,7.008,0,0,1-7-7,1,1,0,0,1,1-1H23a1,1,0,0,1,1,1A7.008,7.008,0,0,1,17,26Zm-6.9-6A5.008,5.008,0,0,0,15,24h2a5.008,5.008,0,0,0,4.9-4Z"/></g></svg>