<svg xmlns="http://www.w3.org/2000/svg" width="34" height="31" viewBox="0 0 34 31">
  <g id="icon-02" transform="translate(-0.104 -0.182)">
    <g id="Rectangle_9" data-name="Rectangle 9" transform="translate(1.104 1.182)" fill="none" stroke="#2b2b2b" stroke-width="1">
      <rect width="32" height="29" stroke="none"/>
      <rect x="0.5" y="0.5" width="31" height="28" fill="none"/>
    </g>
    <circle id="Ellipse_6" data-name="Ellipse 6" cx="1.5" cy="1.5" r="1.5" transform="translate(0.104 0.182)"/>
    <circle id="Ellipse_492" data-name="Ellipse 492" cx="1.5" cy="1.5" r="1.5" transform="translate(31.104 0.182)"/>
    <circle id="Ellipse_493" data-name="Ellipse 493" cx="1.5" cy="1.5" r="1.5" transform="translate(31.104 28.182)"/>
    <circle id="Ellipse_9" data-name="Ellipse 9" cx="1.5" cy="1.5" r="1.5" transform="translate(0.104 28.182)"/>
    <g id="car_1_" data-name="car (1)" transform="translate(7.937 5.291)">
      <g id="Group_35" data-name="Group 35" transform="translate(0 0)">
        <g id="Group_34" data-name="Group 34" transform="translate(0 0)">
          <rect id="Rectangle_11" data-name="Rectangle 11" width="1" height="20" transform="translate(0.167 -0.109)"/>
        </g>
      </g>
      <g id="Group_37" data-name="Group 37" transform="translate(18.519 0)">
        <g id="Group_36" data-name="Group 36" transform="translate(0 0)">
          <rect id="Rectangle_12" data-name="Rectangle 12" height="20" transform="translate(-0.351 -0.109)"/>
        </g>
      </g>
      <g id="Group_39" data-name="Group 39" transform="translate(7.133 5.973)">
        <g id="Group_38" data-name="Group 38" transform="translate(0)">
          <path id="Path_24" data-name="Path 24" d="M186.176,147.117h0l-2.059-4.53,1.2-.546a.33.33,0,0,0,.165-.436h0l-.141-.309a1.31,1.31,0,0,0-1.735-.651h0l-.31.141-.831-1.828a1.952,1.952,0,0,0-2.584-.971l-3.055,1.389a1.95,1.95,0,0,0-.971,2.586l.831,1.828-.309.141a1.31,1.31,0,0,0-.651,1.735h0l.141.309a.33.33,0,0,0,.184.173.336.336,0,0,0,.116.021.327.327,0,0,0,.136-.029l1.2-.547,2.059,4.531a1.947,1.947,0,0,0,2.576.973l.009,0,3.055-1.388A1.952,1.952,0,0,0,186.176,147.117Zm-2.3-5.874a.65.65,0,0,1,.861.323l0,.009-.9.41-.273-.6Zm-3.725-2.657a1.277,1.277,0,0,1,1.528.358,1.309,1.309,0,0,1-1.812-.231Zm-3.055,1.389.283-.13a1.308,1.308,0,0,1-1.019,1.516A1.278,1.278,0,0,1,177.1,139.975Zm-.767,5.422,0-.009a.65.65,0,0,1,.323-.861l.31-.141.273.6Zm8.6,3.7h0l-3.055,1.389a1.292,1.292,0,0,1-1.709-.643l-2.2-4.831-.546-1.2-.831-1.829A1.974,1.974,0,0,0,178,139.574l0-.008,1.256-.573a1.961,1.961,0,0,0,.941.748,1.916,1.916,0,0,0,1.8-.218l3.576,7.867A1.292,1.292,0,0,1,184.933,149.1Z" transform="translate(-175.61 -137.81)"/>
        </g>
      </g>
      <g id="Group_41" data-name="Group 41" transform="translate(9.7 0)">
        <g id="Group_40" data-name="Group 40" transform="translate(0 0)">
          <rect id="Rectangle_13" data-name="Rectangle 13" height="3" transform="translate(0.467 -0.109)"/>
        </g>
      </g>
      <g id="Group_43" data-name="Group 43" transform="translate(9.7 3.527)">
        <g id="Group_42" data-name="Group 42" transform="translate(0 0)">
          <rect id="Rectangle_14" data-name="Rectangle 14" height="2" transform="translate(0.467 0.363)"/>
        </g>
      </g>
      <g id="Group_45" data-name="Group 45" transform="translate(9.7 18.519)">
        <g id="Group_44" data-name="Group 44" transform="translate(0 0)">
          <rect id="Rectangle_15" data-name="Rectangle 15" height="1" transform="translate(0.467 0.372)"/>
        </g>
      </g>
      <g id="Group_47" data-name="Group 47" transform="translate(9.519 9.599)">
        <g id="Group_46" data-name="Group 46">
          <path id="Path_25" data-name="Path 25" d="M240.213,231.518a.332.332,0,0,0-.035-.032l-1.086-.879-.514-1.131.6-.273-.273-.6-.6.273-.387-.852L237.7,226a.33.33,0,0,0-.121-.222.336.336,0,0,0-.242-.072,6.633,6.633,0,0,0-3.795,1.724.33.33,0,0,0-.017.466l1.384,1.49.387.853-.6.273.273.6.6-.273.514,1.131-.052,1.4a.33.33,0,0,0,.318.342h.012l.035,0a6.633,6.633,0,0,0,3.795-1.725A.33.33,0,0,0,240.213,231.518Zm-4.941-2.716-1.027-1.105a5.982,5.982,0,0,1,2.84-1.29l.158,1.5Zm.354.564,1.8-.819.957,2.1-1.8.819ZM236.711,233l.033-.878,2.032-.924.683.553A5.979,5.979,0,0,1,236.711,233Z" transform="translate(-233.442 -225.705)"/>
        </g>
      </g>
      <g id="Group_49" data-name="Group 49" transform="translate(4.409 2.645)">
        <g id="Group_48" data-name="Group 48" transform="translate(0 0)">
          <rect id="Rectangle_16" data-name="Rectangle 16" width="2" height="2" transform="translate(-0.242 0.245)"/>
        </g>
      </g>
      <g id="Group_51" data-name="Group 51" transform="translate(4.409 4.409)">
        <g id="Group_50" data-name="Group 50" transform="translate(0 0)">
          <circle id="Ellipse_10" data-name="Ellipse 10" cx="1" cy="1" r="1" transform="translate(-0.242 0.482)"/>
        </g>
      </g>
      <g id="Group_53" data-name="Group 53" transform="translate(1.705 0.619)">
        <g id="Group_52" data-name="Group 52" transform="translate(0)">
          <path id="Path_26" data-name="Path 26" d="M47.63,8a3.63,3.63,0,1,0,3.63,3.63A3.63,3.63,0,0,0,47.63,8Zm0,6.6a2.97,2.97,0,1,1,2.97-2.97A2.97,2.97,0,0,1,47.63,14.6Z" transform="translate(-44 -8)"/>
        </g>
      </g>
    </g>
  </g>
</svg>
