<?xml version="1.0" ?><!DOCTYPE svg  PUBLIC '-//W3C//DTD SVG 1.0//EN'  'http://www.w3.org/TR/2001/REC-SVG-20010904/DTD/svg10.dtd'><svg enable-background="new 0 0 32 32" height="32px" id="Layer_1" version="1.0" viewBox="0 0 32 32" width="32px" xml:space="preserve" xmlns="http://www.w3.org/2000/svg" xmlns:xlink="http://www.w3.org/1999/xlink"><path d="M10.64,20.26c-0.544-0.402-0.657-1.169-0.255-1.714c0.404-0.544,1.172-0.659,1.717-0.254l2.723,2.021V5.37  c0-0.68,0.549-1.227,1.227-1.227c0.676,0,1.227,0.549,1.227,1.227v14.958l3.003-2.203c0.544-0.399,1.31-0.281,1.712,0.264  c0.401,0.545,0.283,1.311-0.264,1.711l-4.953,3.633c-0.416,0.305-1.039,0.309-1.457-0.002C15.314,23.728,10.64,20.26,10.64,20.26z   M28.88,20.294h-1.893c-0.678,0-1.226,0.55-1.226,1.226c0,0.677,0.547,1.227,1.224,1.228c0.796,0.001,2.004-0.167,2.443,0.687  c0.416,0.809-0.13,1.966-1.109,1.971l-24.64-0.003c-0.665,0-1.225-0.56-1.225-1.226c-0.001-0.323,0.15-1.228,0.615-1.228  c1.011,0,1.838,0,1.838,0c0.677,0,1.226-0.551,1.226-1.226c0-0.676-0.549-1.226-1.226-1.226c0,0-0.828,0-1.838,0  C1.075,20.582,0.005,22.388,0,24.177c0.005,2.032,1.648,3.675,3.679,3.68h24.64c2.028-0.005,3.673-1.648,3.681-3.68v-0.204  C32,22.165,30.868,20.365,28.88,20.294z"/></svg>